<?xml version="1.0" encoding="UTF-8" standalone="no"?>
<!-- Created with Inkscape (http://www.inkscape.org/) -->

<svg
   xmlns:dc="http://purl.org/dc/elements/1.1/"
   xmlns:cc="http://creativecommons.org/ns#"
   xmlns:rdf="http://www.w3.org/1999/02/22-rdf-syntax-ns#"
   xmlns:svg="http://www.w3.org/2000/svg"
   xmlns="http://www.w3.org/2000/svg"
   xmlns:sodipodi="http://sodipodi.sourceforge.net/DTD/sodipodi-0.dtd"
   xmlns:inkscape="http://www.inkscape.org/namespaces/inkscape"
   width="800"
   height="138.40625"
   id="svg2"
   version="1.1"
   inkscape:version="0.48.3.1 r9886"
   sodipodi:docname="frame2_top.svg">
  <defs
     id="defs4" />
  <sodipodi:namedview
     id="base"
     pagecolor="#ffffff"
     bordercolor="#666666"
     borderopacity="1.0"
     inkscape:pageopacity="0.0"
     inkscape:pageshadow="2"
     inkscape:zoom="0.70710678"
     inkscape:cx="293.50041"
     inkscape:cy="170.06871"
     inkscape:document-units="px"
     inkscape:current-layer="layer1"
     showgrid="false"
     showguides="true"
     inkscape:guide-bbox="true"
     fit-margin-top="0"
     fit-margin-left="0"
     fit-margin-right="0"
     fit-margin-bottom="0"
     inkscape:window-width="1022"
     inkscape:window-height="578"
     inkscape:window-x="0"
     inkscape:window-y="20"
     inkscape:window-maximized="0" />
  <metadata
     id="metadata7">
    <rdf:RDF>
      <cc:Work
         rdf:about="">
        <dc:format>image/svg+xml</dc:format>
        <dc:type
           rdf:resource="http://purl.org/dc/dcmitype/StillImage" />
        <dc:title></dc:title>
      </cc:Work>
    </rdf:RDF>
  </metadata>
  <g
     inkscape:label="Ebene 1"
     inkscape:groupmode="layer"
     id="layer1"
     transform="translate(-78.491433,-417.37077)">
    <path
       style="opacity:0.8;fill:#4d4d4d;fill-opacity:1;fill-rule:nonzero;stroke:none"
       d="m 376.41343,417.37077 c -112.48249,0 -251.24486,13.40774 -280.294508,16.34375 l -6.588492,0 0,1.96875 c -0.698216,1.33611 -11.038997,21.41631 -11.038997,37.46875 l 0,6.15625 0,14.53125 0,6.1875 c 0,16.05244 10.340781,36.10346 11.038997,37.4375 l 0,1.96875 6.588492,0 c 29.049648,2.93601 167.812018,16.34375 280.294508,16.34375 l 46.77393,0 110.65176,0 46.77393,0 c 112.48249,0 251.24486,-13.40774 280.29452,-16.34375 l 6.54486,0 0,-1.96875 c 0.69821,-1.33404 11.03899,-21.38506 11.03899,-37.4375 l 0,-6.1875 0,-14.53125 0,-6.15625 c 0,-16.05244 -10.34078,-36.13264 -11.03899,-37.46875 l 0,-1.96875 -6.54486,0 C 831.85791,430.77851 693.09554,417.37077 580.61305,417.37077 l -46.77393,0 -110.65176,0 -46.77393,0 z"
       id="rect2985"
       inkscape:connector-curvature="0" />
    <path
       style="opacity:0.8;fill:#243324;fill-opacity:1;fill-rule:nonzero;stroke:none"
       d="m 514.52193,421.3125 c -87.89984,0.59811 -175.99354,-1.74532 -263.65654,4.18283 -52.11055,3.04084 -104.03316,7.49783 -155.912584,12.09842 -11.851196,19.23801 -11.926349,40.86584 -10.602673,61.65625 -0.435425,12.49588 4.727908,24.58991 10.079084,36.34375 94.652953,8.30311 189.633113,16.17641 285.136803,16.18898 79.39429,-0.16053 158.80482,0.552 238.19016,-0.53273 81.98609,-1.64113 163.67529,-8.32863 244.86502,-15.9375 9.70147,-17.47293 11.33005,-36.52014 10.55904,-55.21875 0.37507,-14.56194 -3.95026,-28.97189 -10.55904,-42.53125 -97.22757,-8.56455 -194.83392,-16.55657 -292.94764,-16.2279 -18.38344,-0.0835 -36.76794,-0.0578 -55.15163,-0.0221 z"
       id="path3091"
       inkscape:connector-curvature="0" />
  </g>
</svg>
