<?xml version="1.0" encoding="UTF-8" standalone="no"?>
<!-- Created with Inkscape (http://www.inkscape.org/) -->

<svg
   xmlns:dc="http://purl.org/dc/elements/1.1/"
   xmlns:cc="http://creativecommons.org/ns#"
   xmlns:rdf="http://www.w3.org/1999/02/22-rdf-syntax-ns#"
   xmlns:svg="http://www.w3.org/2000/svg"
   xmlns="http://www.w3.org/2000/svg"
   xmlns:sodipodi="http://sodipodi.sourceforge.net/DTD/sodipodi-0.dtd"
   xmlns:inkscape="http://www.inkscape.org/namespaces/inkscape"
   width="800"
   height="138.40625"
   id="svg2"
   version="1.1"
   inkscape:version="0.48.3.1 r9886"
   sodipodi:docname="frame2.svg">
  <defs
     id="defs4" />
  <sodipodi:namedview
     id="base"
     pagecolor="#ffffff"
     bordercolor="#666666"
     borderopacity="1.0"
     inkscape:pageopacity="0.0"
     inkscape:pageshadow="2"
     inkscape:zoom="0.70710678"
     inkscape:cx="293.50041"
     inkscape:cy="170.06871"
     inkscape:document-units="px"
     inkscape:current-layer="layer1"
     showgrid="false"
     showguides="true"
     inkscape:guide-bbox="true"
     fit-margin-top="0"
     fit-margin-left="0"
     fit-margin-right="0"
     fit-margin-bottom="0"
     inkscape:window-width="1022"
     inkscape:window-height="578"
     inkscape:window-x="0"
     inkscape:window-y="20"
     inkscape:window-maximized="0" />
  <metadata
     id="metadata7">
    <rdf:RDF>
      <cc:Work
         rdf:about="">
        <dc:format>image/svg+xml</dc:format>
        <dc:type
           rdf:resource="http://purl.org/dc/dcmitype/StillImage" />
        <dc:title></dc:title>
      </cc:Work>
    </rdf:RDF>
  </metadata>
  <g
     inkscape:label="Ebene 1"
     inkscape:groupmode="layer"
     id="layer1"
     transform="translate(-78.491433,-417.37077)">
    <g
       id="g3990">
      <path
         inkscape:connector-curvature="0"
         id="path3097"
         d="m 546.32995,423.25 c -1.00384,0.0101 -2.00636,0.0194 -3.01063,0.0313 -9.58464,-0.005 -19.1692,0.002 -28.75375,0.0313 -77.78013,0.31606 -155.7365,-0.97841 -233.38969,2.4375 -74.131,5.59324 -139.46013,15.17418 -190.411785,27.53125 -6.030604,18.62413 -4.500488,38.36976 -2.617943,57.28125 1.74102,7.94754 4.897673,15.57248 8.37742,23.1875 9.798488,0.87995 19.599408,1.74557 29.408238,2.59375 -15.63607,-9.10991 -23.92917,-18.59811 -23.47423,-28.25 2.35478,-49.95865 236.43009,-84.86146 522.80338,-77.9375 3.80534,0.092 7.60292,0.20674 11.38805,0.3125 -28.53003,-3.05231 -58.76715,-5.49135 -90.31906,-7.21875 z"
         style="opacity:0.63999999;fill:#808080;fill-opacity:1;fill-rule:nonzero;stroke:none" />
      <path
         inkscape:connector-curvature="0"
         id="path3141"
         d="m 812.05125,484.3125 c 8.29969,3.66952 12.74066,7.54497 12.74066,11.53205 0,24.10167 -161.90517,43.63993 -361.62531,43.63993 -145.19845,0 -270.39869,-10.34185 -327.94109,-25.2413 41.87153,18.51252 182.20369,32.13182 348.88464,32.13182 199.72014,0 361.62531,-19.53827 361.62531,-43.63994 0,-6.57952 -12.07717,-12.82785 -33.68421,-18.42256 z"
         style="opacity:0.63999999;fill:#333333;fill-opacity:1;fill-rule:nonzero;stroke:none" />
    </g>
  </g>
</svg>
