<?xml version="1.0" encoding="UTF-8" standalone="no"?>
<!-- Created with Inkscape (http://www.inkscape.org/) -->

<svg
   xmlns:dc="http://purl.org/dc/elements/1.1/"
   xmlns:cc="http://creativecommons.org/ns#"
   xmlns:rdf="http://www.w3.org/1999/02/22-rdf-syntax-ns#"
   xmlns:svg="http://www.w3.org/2000/svg"
   xmlns="http://www.w3.org/2000/svg"
   xmlns:sodipodi="http://sodipodi.sourceforge.net/DTD/sodipodi-0.dtd"
   xmlns:inkscape="http://www.inkscape.org/namespaces/inkscape"
   width="1920"
   height="1090"
   id="svg2"
   version="1.1"
   inkscape:version="0.48.3.1 r9886"
   sodipodi:docname="Neues Dokument 1">
  <defs
     id="defs4" />
  <sodipodi:namedview
     id="base"
     pagecolor="#ffffff"
     bordercolor="#666666"
     borderopacity="1.0"
     inkscape:pageopacity="0.0"
     inkscape:pageshadow="2"
     inkscape:zoom="0.35"
     inkscape:cx="1055.6709"
     inkscape:cy="539.04187"
     inkscape:document-units="px"
     inkscape:current-layer="layer1"
     showgrid="false"
     inkscape:window-width="1022"
     inkscape:window-height="578"
     inkscape:window-x="0"
     inkscape:window-y="20"
     inkscape:window-maximized="0" />
  <metadata
     id="metadata7">
    <rdf:RDF>
      <cc:Work
         rdf:about="">
        <dc:format>image/svg+xml</dc:format>
        <dc:type
           rdf:resource="http://purl.org/dc/dcmitype/StillImage" />
        <dc:title></dc:title>
      </cc:Work>
    </rdf:RDF>
  </metadata>
  <g
     inkscape:label="Ebene 1"
     inkscape:groupmode="layer"
     id="layer1"
     transform="translate(0,37.637817)">
    <rect
       style="fill:#666666;fill-opacity:1;fill-rule:nonzero;stroke:none"
       id="rect2985"
       width="1920"
       height="1090"
       x="0"
       y="-37.63781" />
    <g
       id="g3701">
      <g
         transform="translate(2e-5,0)"
         style="opacity:0.5"
         id="g3077">
        <path
           style="fill:#666666;fill-opacity:1;fill-rule:nonzero;stroke:none"
           d="M 650.10149,391.87368 C 581.13899,438.209 539.0242,500.07355 539.0242,567.99166 c 0,67.9181 42.11479,129.74679 111.07729,176.07732 -31.85955,-51.61962 -50.1423,-111.81346 -50.1423,-176.09765 0,-64.28419 18.28275,-124.47803 50.1423,-176.09765 z m 628.84181,6.30082 c 29.5127,50.19278 46.3618,108.10912 46.3618,169.79683 0,61.6939 -16.8436,119.62089 -46.3618,169.81716 63.5815,-45.56969 102.0325,-104.90091 102.0325,-169.79683 0,-64.89327 -38.4557,-124.24367 -102.0325,-169.81716 z"
           id="path3058"
           inkscape:connector-curvature="0" />
        <path
           inkscape:connector-curvature="0"
           id="path3064"
           d="m 560.86745,341.16706 c -88.81998,59.67739 -143.06156,139.35559 -143.06156,226.83045 0,87.47485 54.24158,167.10687 143.06156,226.77809 -41.03338,-66.48329 -64.58058,-144.0097 -64.58058,-226.80427 0,-82.79457 23.5472,-160.32098 64.58058,-226.80427 z m 809.91435,8.11512 c 38.0107,64.64559 59.7114,139.23871 59.7114,218.68915 0,79.45841 -21.6936,154.06525 -59.7114,218.71534 81.8895,-58.69131 131.4123,-135.10671 131.4123,-218.68916 0,-83.57902 -49.5289,-160.01914 -131.4123,-218.71533 z"
           style="fill:#4d4d4d;fill-opacity:1;fill-rule:nonzero;stroke:none" />
        <path
           style="fill:#333333;fill-opacity:1;fill-rule:nonzero;stroke:none"
           d="m 459.73554,283.69956 c -111.32512,74.7984 -179.3104,174.66541 -179.3104,284.30458 0,109.63917 67.98528,209.44829 179.3104,284.23896 -51.43039,-83.32878 -80.94396,-180.49877 -80.94396,-284.27177 0,-103.773 29.51357,-200.94299 80.94396,-284.27177 z m 1015.12986,10.17132 c 47.6418,81.02545 74.841,174.51892 74.841,274.10045 0,99.59152 -27.1903,193.10219 -74.841,274.13327 102.6386,-73.56247 164.7094,-169.33995 164.7094,-274.10046 0,-104.75621 -62.0785,-200.56467 -164.7094,-274.13326 z"
           id="path3066"
           inkscape:connector-curvature="0" />
        <path
           inkscape:connector-curvature="0"
           id="path3068"
           d="m 349.68023,221.1614 c -135.81601,91.25362 -218.75767,213.0908 -218.75767,346.84996 0,133.75916 82.94166,255.52571 218.75767,346.7699 -62.74479,-101.66063 -98.75117,-220.20746 -98.75117,-346.80993 0,-126.60247 36.00638,-245.1493 98.75117,-346.80993 z m 1238.45267,12.40895 c 58.1227,98.85058 91.3055,212.91208 91.3055,334.40098 0,121.50108 -33.172,235.58357 -91.3055,334.44102 125.2185,-89.74579 200.9445,-206.59377 200.9445,-334.40099 0,-127.80198 -75.7354,-244.68775 -200.9445,-334.44101 z"
           style="fill:#1a1a1a;fill-opacity:1;fill-rule:nonzero;stroke:none" />
      </g>
      <g
         transform="matrix(0.96504763,0,0,0.96504763,33.554295,19.851947)"
         id="g3110"
         style="opacity:0.5">
        <path
           inkscape:connector-curvature="0"
           id="path3112"
           d="M 650.10149,391.87368 C 581.13899,438.209 539.0242,500.07355 539.0242,567.99166 c 0,67.9181 42.11479,129.74679 111.07729,176.07732 -31.85955,-51.61962 -50.1423,-111.81346 -50.1423,-176.09765 0,-64.28419 18.28275,-124.47803 50.1423,-176.09765 z m 628.84181,6.30082 c 29.5127,50.19278 46.3618,108.10912 46.3618,169.79683 0,61.6939 -16.8436,119.62089 -46.3618,169.81716 63.5815,-45.56969 102.0325,-104.90091 102.0325,-169.79683 0,-64.89327 -38.4557,-124.24367 -102.0325,-169.81716 z"
           style="fill:#666666;fill-opacity:1;fill-rule:nonzero;stroke:none" />
        <path
           style="fill:#4d4d4d;fill-opacity:1;fill-rule:nonzero;stroke:none"
           d="m 560.86745,341.16706 c -88.81998,59.67739 -143.06156,139.35559 -143.06156,226.83045 0,87.47485 54.24158,167.10687 143.06156,226.77809 -41.03338,-66.48329 -64.58058,-144.0097 -64.58058,-226.80427 0,-82.79457 23.5472,-160.32098 64.58058,-226.80427 z m 809.91435,8.11512 c 38.0107,64.64559 59.7114,139.23871 59.7114,218.68915 0,79.45841 -21.6936,154.06525 -59.7114,218.71534 81.8895,-58.69131 131.4123,-135.10671 131.4123,-218.68916 0,-83.57902 -49.5289,-160.01914 -131.4123,-218.71533 z"
           id="path3114"
           inkscape:connector-curvature="0" />
        <path
           inkscape:connector-curvature="0"
           id="path3116"
           d="m 459.73554,283.69956 c -111.32512,74.7984 -179.3104,174.66541 -179.3104,284.30458 0,109.63917 67.98528,209.44829 179.3104,284.23896 -51.43039,-83.32878 -80.94396,-180.49877 -80.94396,-284.27177 0,-103.773 29.51357,-200.94299 80.94396,-284.27177 z m 1015.12986,10.17132 c 47.6418,81.02545 74.841,174.51892 74.841,274.10045 0,99.59152 -27.1903,193.10219 -74.841,274.13327 102.6386,-73.56247 164.7094,-169.33995 164.7094,-274.10046 0,-104.75621 -62.0785,-200.56467 -164.7094,-274.13326 z"
           style="fill:#333333;fill-opacity:1;fill-rule:nonzero;stroke:none" />
        <path
           style="fill:#1a1a1a;fill-opacity:1;fill-rule:nonzero;stroke:none"
           d="m 349.68023,221.1614 c -135.81601,91.25362 -218.75767,213.0908 -218.75767,346.84996 0,133.75916 82.94166,255.52571 218.75767,346.7699 -62.74479,-101.66063 -98.75117,-220.20746 -98.75117,-346.80993 0,-126.60247 36.00638,-245.1493 98.75117,-346.80993 z m 1238.45267,12.40895 c 58.1227,98.85058 91.3055,212.91208 91.3055,334.40098 0,121.50108 -33.172,235.58357 -91.3055,334.44102 125.2185,-89.74579 200.9445,-206.59377 200.9445,-334.40099 0,-127.80198 -75.7354,-244.68775 -200.9445,-334.44101 z"
           id="path3118"
           inkscape:connector-curvature="0" />
      </g>
      <path
         id="path3671"
         transform="translate(0,-37.637817)"
         d="M 960 581.4375 C 783.01138 581.4375 638.69919 714.06354 631.6875 880.1875 C 600.99791 922.38243 578.25553 970.71453 565.625 1023 C 681.82398 994.73568 816.47103 978.59375 960 978.59375 C 1103.529 978.59375 1238.176 994.73568 1354.375 1023 C 1341.7444 970.71453 1319.0021 922.38243 1288.3125 880.1875 C 1281.3008 714.06354 1136.9886 581.4375 960 581.4375 z "
         style="fill:#333333;fill-opacity:1;fill-rule:nonzero;stroke:none" />
      <path
         id="path3676"
         transform="translate(0,-37.637817)"
         d="M 960 598.40625 C 789.38661 598.40625 650.25913 726.26617 643.5 886.40625 C 614.8393 925.81166 593.38413 970.77853 581 1019.375 C 693.64109 993.3673 822.74954 978.59375 960 978.59375 C 1097.2505 978.59375 1226.3589 993.3673 1339 1019.375 C 1326.6158 970.77853 1305.1607 925.81166 1276.5 886.40625 C 1269.7408 726.26617 1130.6134 598.40625 960 598.40625 z "
         style="fill:#4d4d4d;fill-opacity:1;fill-rule:nonzero;stroke:none" />
      <path
         inkscape:connector-curvature="0"
         id="path3039"
         d="m 360.53125,402.64343 c -22.16396,-0.0648 -44.22652,12.04808 -56.59375,33.46875 -17.98868,31.15735 -8.67374,70.14557 20.84375,87.1875 28.58048,16.50094 65.63083,6.38547 84.28125,-22.5625 L 884.5,810.76843 501.15625,1005.1747 c 93.32447,-22.28524 196.56232,-38.00146 306.1875,-45.62502 L 960,860.01843 l 152.6562,99.53125 c 109.6252,7.62356 212.8631,23.33978 306.1876,45.62502 L 1035.5,810.76843 1510.9375,500.73718 c 18.6505,28.94791 55.7006,39.06334 84.2813,22.5625 29.5175,-17.04195 38.8325,-56.03013 20.8437,-87.1875 -17.9885,-31.15731 -56.4512,-42.63567 -85.9687,-25.59375 -28.5806,16.50092 -38.3065,53.71814 -22.5626,84.34375 L 960,772.51843 412.46875,494.86218 c 15.74438,-30.62569 6.0181,-67.84281 -22.5625,-84.34375 -9.22421,-5.3256 -19.30045,-7.84553 -29.375,-7.875 z"
         style="fill:#333333;fill-opacity:1;fill-rule:nonzero;stroke:none" />
      <g
         transform="translate(2.5e-5,0)"
         id="g3101">
        <path
           style="fill:#333333;fill-opacity:1;fill-rule:nonzero;stroke:none"
           d="m 960,50.937659 c -194.14636,0 -351.53125,112.853821 -351.53125,252.062501 0,66.26764 35.68281,126.53935 94,171.53125 5.88879,89.60342 36.33333,169.56958 82.09375,227.25 9.10748,-9.01932 19.19845,-17.32685 30.09375,-24.8125 L 801.625,652.28141 c -1.12587,-2.13351 3.7e-4,-4.6134 2.53125,-5.5625 l 27.78125,-10.4375 c 0.63271,-0.23728 1.28801,-0.33305 1.9375,-0.34375 1.94845,-0.0322 3.81185,0.89987 4.65625,2.5 l 10.09375,19.125 c 8.42908,-3.93509 17.18457,-7.40343 26.21875,-10.4375 l -5.96875,-37.4375 c -0.36936,-2.31423 1.53599,-4.43863 4.28125,-4.75 l 30.15625,-3.40625 c 0.17157,-0.0196 0.33074,-0.0263 0.5,-0.0313 2.53886,-0.071 4.74747,1.4554 5.09375,3.625 l 5.125,32.15625 c 8.9148,-1.52285 18.02475,-2.62304 27.28125,-3.25 l 0,-54.3125 c 0,-2.33509 2.23,-4.21875 5,-4.21875 l 30.40625,0 c 2.77,0 5,1.88366 5,4.21875 l 0,54.53125 c 8.02547,0.63347 15.95433,1.59616 23.71875,2.90625 l 5.6563,-35.4375 c 0.3463,-2.1696 2.5548,-3.72723 5.0937,-3.65625 0.1692,0.005 0.3596,0.043 0.5313,0.0625 l 30.125,3.40625 c 2.7452,0.31137 4.6506,2.40451 4.2812,4.71875 l -6.5,40.6875 c 8.7067,2.90276 17.1634,6.2286 25.3125,9.96875 l 11.5313,-21.875 c 0.8442,-1.60013 2.7078,-2.53221 4.6562,-2.5 0.6495,0.0107 1.3047,0.13772 1.9375,0.375 l 27.7813,10.40625 c 2.5307,0.9491 3.6571,3.42899 2.5312,5.5625 l -14.3438,27.1875 c 11.4011,7.71691 21.9337,16.33782 31.4063,25.71875 45.7595,-57.67526 76.2006,-137.62212 82.0937,-227.21875 58.3263,-44.99317 94,-105.28898 94,-171.5625 C 1311.5312,163.79148 1154.1464,50.937659 960,50.937659 z M 816.53125,297.62516 c 42.39978,0 76.78125,25.92587 76.78125,57.90625 0,31.98037 -34.38147,57.90625 -76.78125,57.90625 -42.39978,0 -76.75,-25.92588 -76.75,-57.90625 0,-31.98038 34.35022,-57.90625 76.75,-57.90625 z m 286.93755,0 c 42.3995,0 76.75,25.92587 76.75,57.90625 0,31.98037 -34.3505,57.90625 -76.75,57.90625 -42.3999,0 -76.7813,-25.92588 -76.7813,-57.90625 0,-31.98038 34.3814,-57.90625 76.7813,-57.90625 z M 960,420.18766 c 24.54724,0 44.4375,22.63666 44.4375,50.53125 0,27.89459 -19.89026,50.5 -44.4375,50.5 -24.54724,0 -44.4375,-22.60541 -44.4375,-50.5 0,-27.89459 19.89026,-50.53125 44.4375,-50.53125 z"
           id="path2987"
           inkscape:connector-curvature="0" />
        <path
           inkscape:connector-curvature="0"
           id="path3085"
           d="m 960,66.80726 c -184.67858,0 -334.38839,107.35036 -334.38839,239.77036 0,63.03601 33.94269,120.3685 89.41597,163.16631 5.60162,85.23381 34.56149,161.30031 78.09035,216.16788 8.66334,-8.57949 18.26221,-16.48189 28.62619,-23.60249 l -12.39576,-23.48358 c -1.07097,-2.02947 3.5e-4,-4.38842 2.4078,-5.29124 l 26.42647,-9.9285 c 0.60185,-0.22572 1.22519,-0.31681 1.84301,-0.32699 1.85344,-0.0306 3.62596,0.85599 4.42919,2.37808 l 9.60151,18.19235 c 8.01803,-3.74319 16.34654,-7.04239 24.94016,-9.9285 l -5.67768,-35.61181 c -0.35134,-2.20138 1.46109,-4.22218 4.07248,-4.51837 l 28.68564,-3.24014 c 0.1632,-0.0187 0.31461,-0.025 0.47562,-0.0297 2.41504,-0.0676 4.51595,1.38443 4.84534,3.44823 l 4.87508,30.5881 c 8.48006,-1.44858 17.14575,-2.49512 25.95084,-3.09151 l 0,-51.66388 c 0,-2.22122 2.12124,-4.01302 4.75616,-4.01302 l 28.92346,0 c 2.63492,0 4.75617,1.7918 4.75617,4.01302 l 0,51.87197 c 7.6341,0.60258 15.17629,1.51832 22.56209,2.76452 l 5.3805,-33.70934 c 0.3294,-2.0638 2.4302,-3.54547 4.8453,-3.47795 0.1609,0.004 0.342,0.0409 0.5053,0.0595 l 28.6559,3.24014 c 2.6113,0.29619 4.4239,2.28725 4.0725,4.48864 l -6.183,38.70332 c 8.282,2.76121 16.3264,5.92485 24.0781,9.48261 l 10.9689,-20.80824 c 0.803,-1.52209 2.5758,-2.40872 4.4292,-2.37808 0.6178,0.01 1.241,0.131 1.8429,0.35671 l 26.4266,9.89878 c 2.4073,0.90281 3.4788,3.26177 2.4078,5.29123 l -13.6444,25.86167 c 10.8452,7.34059 20.8641,15.54108 29.8747,24.46455 43.528,-54.86266 72.4846,-130.91082 78.0904,-216.13815 55.4819,-42.79902 89.4159,-100.15444 89.4159,-163.19604 C 1294.3883,174.15762 1144.6787,66.80726 960,66.80726 z M 823.52768,301.46474 c 40.3321,0 73.03692,24.66156 73.03692,55.08238 0,30.42081 -32.70482,55.08238 -73.03692,55.08238 -40.3321,0 -73.00719,-24.66157 -73.00719,-55.08238 0,-30.42082 32.67509,-55.08238 73.00719,-55.08238 z m 272.94462,0 c 40.3319,0 73.0072,24.66156 73.0072,55.08238 0,30.42081 -32.6753,55.08238 -73.0072,55.08238 -40.3321,0 -73.0369,-24.66157 -73.0369,-55.08238 0,-30.42082 32.7048,-55.08238 73.0369,-55.08238 z M 960,418.05033 c 23.35016,0 42.2705,21.53275 42.2705,48.06702 0,26.53428 -18.92034,48.03732 -42.2705,48.03732 -23.35017,0 -42.27045,-21.50304 -42.27045,-48.03732 0,-26.53427 18.92028,-48.06702 42.27045,-48.06702 z"
           style="fill:#4d4d4d;fill-opacity:1;fill-rule:nonzero;stroke:none" />
        <path
           style="fill:#666666;fill-opacity:1;fill-rule:nonzero;stroke:none"
           d="m 959.99999,82.449296 c -175.34655,0 -317.49135,101.925824 -317.49135,227.654494 0,59.85072 32.22752,114.28613 84.89767,154.92132 5.31857,80.92684 32.81507,153.14961 74.14436,205.24465 8.22557,-8.14594 17.3394,-15.64904 27.17967,-22.40982 l -11.76938,-22.29692 c -1.01685,-1.92693 3.3e-4,-4.16668 2.28612,-5.02387 l 25.09111,-9.4268 c 0.57144,-0.21432 1.16329,-0.30081 1.74988,-0.31047 1.75979,-0.029 3.44275,0.81274 4.20538,2.25791 l 9.11634,17.27306 c 7.61287,-3.55403 15.52053,-6.68652 23.67991,-9.4268 l -5.39079,-33.81229 c -0.33358,-2.09015 1.38726,-4.00883 3.8667,-4.29005 l 27.23612,-3.07641 c 0.15495,-0.0178 0.29871,-0.0238 0.45159,-0.0282 2.293,-0.0641 4.28774,1.31449 4.60049,3.27399 l 4.62874,29.04246 c 8.05155,-1.37539 16.27935,-2.36904 24.63951,-2.93529 l 0,-49.05326 c 0,-2.10897 2.01406,-3.81023 4.51584,-3.81023 l 27.46192,0 c 2.50177,0 4.51583,1.70126 4.51583,3.81023 l 0,49.25082 c 7.24834,0.57214 14.40942,1.44161 21.42195,2.62484 l 5.1086,-32.00598 c 0.3128,-1.95951 2.3075,-3.3663 4.6005,-3.3022 0.1528,0.004 0.3247,0.0388 0.4798,0.0565 l 27.2079,3.07641 c 2.4793,0.28122 4.2003,2.17169 3.8667,4.26183 l -5.8706,36.74759 c 7.8636,2.62168 15.5013,5.62546 22.8614,9.00345 l 10.4147,-19.75678 c 0.7624,-1.44518 2.4456,-2.287 4.2053,-2.25791 0.5865,0.009 1.1783,0.12433 1.7499,0.33869 l 25.0912,9.39857 c 2.2857,0.8572 3.3029,3.09696 2.2861,5.02386 l -12.9548,24.55485 c 10.297,6.96967 19.8096,14.75578 28.365,23.22833 41.3285,-52.09038 68.8218,-124.29574 74.1444,-205.21643 52.6783,-40.63634 84.8976,-95.09352 84.8976,-154.94957 0,-125.72866 -142.1447,-227.65449 -317.49131,-227.65449 z M 830.42378,305.24926 c 38.29407,0 69.34628,23.41538 69.34628,52.299 0,28.88362 -31.05221,52.29901 -69.34628,52.29901 -38.29407,0 -69.31805,-23.41539 -69.31805,-52.29901 0,-28.88362 31.02398,-52.299 69.31805,-52.299 z m 259.15252,0 c 38.2938,0 69.318,23.41538 69.318,52.299 0,28.88362 -31.0242,52.29901 -69.318,52.29901 -38.2942,0 -69.3464,-23.41539 -69.3464,-52.29901 0,-28.88362 31.0522,-52.299 69.3464,-52.299 z M 959.99999,415.94365 c 22.17026,0 40.13451,20.44467 40.13451,45.63813 0,25.19347 -17.96425,45.60993 -40.13451,45.60993 -22.17025,0 -40.13447,-20.41646 -40.13447,-45.60993 0,-25.19346 17.96422,-45.63813 40.13447,-45.63813 z"
           id="path3087"
           inkscape:connector-curvature="0" />
      </g>
      <g
         transform="translate(2.734375e-6,-589.48815)"
         id="g3473">
        <path
           sodipodi:type="arc"
           style="fill:#333333;fill-opacity:1;fill-rule:nonzero;stroke:none"
           id="path3120"
           sodipodi:cx="1107.1272"
           sodipodi:cy="1453.6549"
           sodipodi:rx="157.5838"
           sodipodi:ry="157.5838"
           d="m 1264.711,1453.6549 c 0,87.0311 -70.5527,157.5838 -157.5838,157.5838 -87.0311,0 -157.5838,-70.5527 -157.5838,-157.5838 0,-87.0311 70.5527,-157.5838 157.5838,-157.5838 87.0311,0 157.5838,70.5527 157.5838,157.5838 z"
           transform="translate(-147.1272,-296.23687)" />
        <path
           inkscape:connector-curvature="0"
           style="fill:#4d4d4d;fill-opacity:1;fill-rule:nonzero;stroke:none"
           d="m 960,1051.75 c -79.14135,0 -143.3125,64.1712 -143.3125,143.3125 0,35.4463 12.89678,67.8898 34.21875,92.9063 l 0,-16.2813 c 24.12163,34.2736 63.998,56.6563 109.09375,56.6563 45.0957,0 84.972,-22.3827 109.0938,-56.6563 l 0,16.2813 c 21.3219,-25.0165 34.2187,-57.46 34.2187,-92.9063 0,-79.1413 -64.1712,-143.3125 -143.3125,-143.3125 z"
           transform="translate(0,-37.637817)"
           id="path3412" />
        <g
           id="g3417"
           transform="matrix(1,0,0,0.61878288,0,470.44086)">
          <path
             transform="translate(0,-37.637817)"
             id="rect3122"
             d="m 850.90625,1271.6875 0,84.125 18.46875,275.625 181.25,0 18.4688,-275.625 0,-84.125 c -24.1217,34.2736 -63.9981,56.6563 -109.0938,56.6563 -45.09575,0 -84.97212,-22.3827 -109.09375,-56.6563 z"
             style="fill:#1a1a1a;fill-opacity:1;fill-rule:nonzero;stroke:none"
             inkscape:connector-curvature="0" />
          <path
             inkscape:connector-curvature="0"
             id="path3144"
             d="m 862.15765,1279.3012 0,44.6738 16.56398,261.6356 162.55667,0 16.5641,-261.6356 0,-44.6738 c -25.3949,25.798 -59.86329,41.6482 -97.84241,41.6482 -37.97908,0 -72.44759,-15.8502 -97.84234,-41.6482 z"
             style="fill:#333333;fill-opacity:1;fill-rule:nonzero;stroke:none" />
        </g>
        <g
           id="g3363"
           transform="matrix(0.75555556,0,0,0.75555556,233.96825,287.06949)"
           style="fill:#333333">
          <g
             transform="translate(-2.8571429,-3.5714286)"
             id="g3200"
             style="fill:#333333">
            <g
               id="g3191"
               transform="translate(-11.428589,0)"
               style="fill:#333333">
              <path
                 transform="translate(0,-37.637817)"
                 d="m 860.00002,1182.8572 c 0,4.7338 -3.83756,8.5714 -8.57143,8.5714 -4.73387,0 -8.57143,-3.8376 -8.57143,-8.5714 0,-4.7339 3.83756,-8.5715 8.57143,-8.5715 4.73387,0 8.57143,3.8376 8.57143,8.5715 z"
                 sodipodi:ry="8.5714283"
                 sodipodi:rx="8.5714283"
                 sodipodi:cy="1182.8572"
                 sodipodi:cx="851.42859"
                 id="path3161"
                 style="fill:#333333;fill-opacity:1;fill-rule:nonzero;stroke:none"
                 sodipodi:type="arc" />
              <path
                 sodipodi:type="arc"
                 style="fill:#333333;fill-opacity:1;fill-rule:nonzero;stroke:none"
                 id="path3165"
                 sodipodi:cx="851.42859"
                 sodipodi:cy="1182.8572"
                 sodipodi:rx="8.5714283"
                 sodipodi:ry="8.5714283"
                 d="m 860.00002,1182.8572 c 0,4.7338 -3.83756,8.5714 -8.57143,8.5714 -4.73387,0 -8.57143,-3.8376 -8.57143,-8.5714 0,-4.7339 3.83756,-8.5715 8.57143,-8.5715 4.73387,0 8.57143,3.8376 8.57143,8.5715 z"
                 transform="translate(40,-37.637817)" />
              <path
                 transform="translate(80,-37.637817)"
                 d="m 860.00002,1182.8572 c 0,4.7338 -3.83756,8.5714 -8.57143,8.5714 -4.73387,0 -8.57143,-3.8376 -8.57143,-8.5714 0,-4.7339 3.83756,-8.5715 8.57143,-8.5715 4.73387,0 8.57143,3.8376 8.57143,8.5715 z"
                 sodipodi:ry="8.5714283"
                 sodipodi:rx="8.5714283"
                 sodipodi:cy="1182.8572"
                 sodipodi:cx="851.42859"
                 id="path3167"
                 style="fill:#333333;fill-opacity:1;fill-rule:nonzero;stroke:none"
                 sodipodi:type="arc" />
              <path
                 sodipodi:type="arc"
                 style="fill:#333333;fill-opacity:1;fill-rule:nonzero;stroke:none"
                 id="path3169"
                 sodipodi:cx="851.42859"
                 sodipodi:cy="1182.8572"
                 sodipodi:rx="8.5714283"
                 sodipodi:ry="8.5714283"
                 d="m 860.00002,1182.8572 c 0,4.7338 -3.83756,8.5714 -8.57143,8.5714 -4.73387,0 -8.57143,-3.8376 -8.57143,-8.5714 0,-4.7339 3.83756,-8.5715 8.57143,-8.5715 4.73387,0 8.57143,3.8376 8.57143,8.5715 z"
                 transform="translate(120,-37.637817)" />
              <path
                 transform="translate(160,-37.637817)"
                 d="m 860.00002,1182.8572 c 0,4.7338 -3.83756,8.5714 -8.57143,8.5714 -4.73387,0 -8.57143,-3.8376 -8.57143,-8.5714 0,-4.7339 3.83756,-8.5715 8.57143,-8.5715 4.73387,0 8.57143,3.8376 8.57143,8.5715 z"
                 sodipodi:ry="8.5714283"
                 sodipodi:rx="8.5714283"
                 sodipodi:cy="1182.8572"
                 sodipodi:cx="851.42859"
                 id="path3171"
                 style="fill:#333333;fill-opacity:1;fill-rule:nonzero;stroke:none"
                 sodipodi:type="arc" />
              <path
                 sodipodi:type="arc"
                 style="fill:#333333;fill-opacity:1;fill-rule:nonzero;stroke:none"
                 id="path3173"
                 sodipodi:cx="851.42859"
                 sodipodi:cy="1182.8572"
                 sodipodi:rx="8.5714283"
                 sodipodi:ry="8.5714283"
                 d="m 860.00002,1182.8572 c 0,4.7338 -3.83756,8.5714 -8.57143,8.5714 -4.73387,0 -8.57143,-3.8376 -8.57143,-8.5714 0,-4.7339 3.83756,-8.5715 8.57143,-8.5715 4.73387,0 8.57143,3.8376 8.57143,8.5715 z"
                 transform="translate(200,-37.637817)" />
              <path
                 transform="translate(240,-37.637817)"
                 d="m 860.00002,1182.8572 c 0,4.7338 -3.83756,8.5714 -8.57143,8.5714 -4.73387,0 -8.57143,-3.8376 -8.57143,-8.5714 0,-4.7339 3.83756,-8.5715 8.57143,-8.5715 4.73387,0 8.57143,3.8376 8.57143,8.5715 z"
                 sodipodi:ry="8.5714283"
                 sodipodi:rx="8.5714283"
                 sodipodi:cy="1182.8572"
                 sodipodi:cx="851.42859"
                 id="path3175"
                 style="fill:#333333;fill-opacity:1;fill-rule:nonzero;stroke:none"
                 sodipodi:type="arc" />
            </g>
          </g>
          <g
             id="g3210"
             transform="translate(-2.8571429,36.428571)"
             style="fill:#333333">
            <g
               transform="translate(-11.428589,0)"
               id="g3212"
               style="fill:#333333">
              <path
                 sodipodi:type="arc"
                 style="fill:#333333;fill-opacity:1;fill-rule:nonzero;stroke:none"
                 id="path3214"
                 sodipodi:cx="851.42859"
                 sodipodi:cy="1182.8572"
                 sodipodi:rx="8.5714283"
                 sodipodi:ry="8.5714283"
                 d="m 860.00002,1182.8572 c 0,4.7338 -3.83756,8.5714 -8.57143,8.5714 -4.73387,0 -8.57143,-3.8376 -8.57143,-8.5714 0,-4.7339 3.83756,-8.5715 8.57143,-8.5715 4.73387,0 8.57143,3.8376 8.57143,8.5715 z"
                 transform="translate(0,-37.637817)" />
              <path
                 transform="translate(40,-37.637817)"
                 d="m 860.00002,1182.8572 c 0,4.7338 -3.83756,8.5714 -8.57143,8.5714 -4.73387,0 -8.57143,-3.8376 -8.57143,-8.5714 0,-4.7339 3.83756,-8.5715 8.57143,-8.5715 4.73387,0 8.57143,3.8376 8.57143,8.5715 z"
                 sodipodi:ry="8.5714283"
                 sodipodi:rx="8.5714283"
                 sodipodi:cy="1182.8572"
                 sodipodi:cx="851.42859"
                 id="path3216"
                 style="fill:#333333;fill-opacity:1;fill-rule:nonzero;stroke:none"
                 sodipodi:type="arc" />
              <path
                 sodipodi:type="arc"
                 style="fill:#333333;fill-opacity:1;fill-rule:nonzero;stroke:none"
                 id="path3218"
                 sodipodi:cx="851.42859"
                 sodipodi:cy="1182.8572"
                 sodipodi:rx="8.5714283"
                 sodipodi:ry="8.5714283"
                 d="m 860.00002,1182.8572 c 0,4.7338 -3.83756,8.5714 -8.57143,8.5714 -4.73387,0 -8.57143,-3.8376 -8.57143,-8.5714 0,-4.7339 3.83756,-8.5715 8.57143,-8.5715 4.73387,0 8.57143,3.8376 8.57143,8.5715 z"
                 transform="translate(80,-37.637817)" />
              <path
                 transform="translate(120,-37.637817)"
                 d="m 860.00002,1182.8572 c 0,4.7338 -3.83756,8.5714 -8.57143,8.5714 -4.73387,0 -8.57143,-3.8376 -8.57143,-8.5714 0,-4.7339 3.83756,-8.5715 8.57143,-8.5715 4.73387,0 8.57143,3.8376 8.57143,8.5715 z"
                 sodipodi:ry="8.5714283"
                 sodipodi:rx="8.5714283"
                 sodipodi:cy="1182.8572"
                 sodipodi:cx="851.42859"
                 id="path3220"
                 style="fill:#333333;fill-opacity:1;fill-rule:nonzero;stroke:none"
                 sodipodi:type="arc" />
              <path
                 sodipodi:type="arc"
                 style="fill:#333333;fill-opacity:1;fill-rule:nonzero;stroke:none"
                 id="path3222"
                 sodipodi:cx="851.42859"
                 sodipodi:cy="1182.8572"
                 sodipodi:rx="8.5714283"
                 sodipodi:ry="8.5714283"
                 d="m 860.00002,1182.8572 c 0,4.7338 -3.83756,8.5714 -8.57143,8.5714 -4.73387,0 -8.57143,-3.8376 -8.57143,-8.5714 0,-4.7339 3.83756,-8.5715 8.57143,-8.5715 4.73387,0 8.57143,3.8376 8.57143,8.5715 z"
                 transform="translate(160,-37.637817)" />
              <path
                 transform="translate(200,-37.637817)"
                 d="m 860.00002,1182.8572 c 0,4.7338 -3.83756,8.5714 -8.57143,8.5714 -4.73387,0 -8.57143,-3.8376 -8.57143,-8.5714 0,-4.7339 3.83756,-8.5715 8.57143,-8.5715 4.73387,0 8.57143,3.8376 8.57143,8.5715 z"
                 sodipodi:ry="8.5714283"
                 sodipodi:rx="8.5714283"
                 sodipodi:cy="1182.8572"
                 sodipodi:cx="851.42859"
                 id="path3224"
                 style="fill:#333333;fill-opacity:1;fill-rule:nonzero;stroke:none"
                 sodipodi:type="arc" />
              <path
                 sodipodi:type="arc"
                 style="fill:#333333;fill-opacity:1;fill-rule:nonzero;stroke:none"
                 id="path3226"
                 sodipodi:cx="851.42859"
                 sodipodi:cy="1182.8572"
                 sodipodi:rx="8.5714283"
                 sodipodi:ry="8.5714283"
                 d="m 860.00002,1182.8572 c 0,4.7338 -3.83756,8.5714 -8.57143,8.5714 -4.73387,0 -8.57143,-3.8376 -8.57143,-8.5714 0,-4.7339 3.83756,-8.5715 8.57143,-8.5715 4.73387,0 8.57143,3.8376 8.57143,8.5715 z"
                 transform="translate(240,-37.637817)" />
            </g>
          </g>
          <g
             transform="translate(-2.8571429,76.428571)"
             id="g3228"
             style="fill:#333333">
            <g
               id="g3230"
               transform="translate(-11.428589,0)"
               style="fill:#333333">
              <path
                 transform="translate(0,-37.637817)"
                 d="m 860.00002,1182.8572 c 0,4.7338 -3.83756,8.5714 -8.57143,8.5714 -4.73387,0 -8.57143,-3.8376 -8.57143,-8.5714 0,-4.7339 3.83756,-8.5715 8.57143,-8.5715 4.73387,0 8.57143,3.8376 8.57143,8.5715 z"
                 sodipodi:ry="8.5714283"
                 sodipodi:rx="8.5714283"
                 sodipodi:cy="1182.8572"
                 sodipodi:cx="851.42859"
                 id="path3232"
                 style="fill:#333333;fill-opacity:1;fill-rule:nonzero;stroke:none"
                 sodipodi:type="arc" />
              <path
                 sodipodi:type="arc"
                 style="fill:#333333;fill-opacity:1;fill-rule:nonzero;stroke:none"
                 id="path3234"
                 sodipodi:cx="851.42859"
                 sodipodi:cy="1182.8572"
                 sodipodi:rx="8.5714283"
                 sodipodi:ry="8.5714283"
                 d="m 860.00002,1182.8572 c 0,4.7338 -3.83756,8.5714 -8.57143,8.5714 -4.73387,0 -8.57143,-3.8376 -8.57143,-8.5714 0,-4.7339 3.83756,-8.5715 8.57143,-8.5715 4.73387,0 8.57143,3.8376 8.57143,8.5715 z"
                 transform="translate(40,-37.637817)" />
              <path
                 transform="translate(80,-37.637817)"
                 d="m 860.00002,1182.8572 c 0,4.7338 -3.83756,8.5714 -8.57143,8.5714 -4.73387,0 -8.57143,-3.8376 -8.57143,-8.5714 0,-4.7339 3.83756,-8.5715 8.57143,-8.5715 4.73387,0 8.57143,3.8376 8.57143,8.5715 z"
                 sodipodi:ry="8.5714283"
                 sodipodi:rx="8.5714283"
                 sodipodi:cy="1182.8572"
                 sodipodi:cx="851.42859"
                 id="path3236"
                 style="fill:#333333;fill-opacity:1;fill-rule:nonzero;stroke:none"
                 sodipodi:type="arc" />
              <path
                 sodipodi:type="arc"
                 style="fill:#333333;fill-opacity:1;fill-rule:nonzero;stroke:none"
                 id="path3238"
                 sodipodi:cx="851.42859"
                 sodipodi:cy="1182.8572"
                 sodipodi:rx="8.5714283"
                 sodipodi:ry="8.5714283"
                 d="m 860.00002,1182.8572 c 0,4.7338 -3.83756,8.5714 -8.57143,8.5714 -4.73387,0 -8.57143,-3.8376 -8.57143,-8.5714 0,-4.7339 3.83756,-8.5715 8.57143,-8.5715 4.73387,0 8.57143,3.8376 8.57143,8.5715 z"
                 transform="translate(120,-37.637817)" />
              <path
                 transform="translate(160,-37.637817)"
                 d="m 860.00002,1182.8572 c 0,4.7338 -3.83756,8.5714 -8.57143,8.5714 -4.73387,0 -8.57143,-3.8376 -8.57143,-8.5714 0,-4.7339 3.83756,-8.5715 8.57143,-8.5715 4.73387,0 8.57143,3.8376 8.57143,8.5715 z"
                 sodipodi:ry="8.5714283"
                 sodipodi:rx="8.5714283"
                 sodipodi:cy="1182.8572"
                 sodipodi:cx="851.42859"
                 id="path3240"
                 style="fill:#333333;fill-opacity:1;fill-rule:nonzero;stroke:none"
                 sodipodi:type="arc" />
              <path
                 sodipodi:type="arc"
                 style="fill:#333333;fill-opacity:1;fill-rule:nonzero;stroke:none"
                 id="path3242"
                 sodipodi:cx="851.42859"
                 sodipodi:cy="1182.8572"
                 sodipodi:rx="8.5714283"
                 sodipodi:ry="8.5714283"
                 d="m 860.00002,1182.8572 c 0,4.7338 -3.83756,8.5714 -8.57143,8.5714 -4.73387,0 -8.57143,-3.8376 -8.57143,-8.5714 0,-4.7339 3.83756,-8.5715 8.57143,-8.5715 4.73387,0 8.57143,3.8376 8.57143,8.5715 z"
                 transform="translate(200,-37.637817)" />
              <path
                 transform="translate(240,-37.637817)"
                 d="m 860.00002,1182.8572 c 0,4.7338 -3.83756,8.5714 -8.57143,8.5714 -4.73387,0 -8.57143,-3.8376 -8.57143,-8.5714 0,-4.7339 3.83756,-8.5715 8.57143,-8.5715 4.73387,0 8.57143,3.8376 8.57143,8.5715 z"
                 sodipodi:ry="8.5714283"
                 sodipodi:rx="8.5714283"
                 sodipodi:cy="1182.8572"
                 sodipodi:cx="851.42859"
                 id="path3244"
                 style="fill:#333333;fill-opacity:1;fill-rule:nonzero;stroke:none"
                 sodipodi:type="arc" />
            </g>
          </g>
          <path
             sodipodi:type="arc"
             style="fill:#333333;fill-opacity:1;fill-rule:nonzero;stroke:none"
             id="path3254"
             sodipodi:cx="851.42859"
             sodipodi:cy="1182.8572"
             sodipodi:rx="8.5714283"
             sodipodi:ry="8.5714283"
             d="m 860.00002,1182.8572 c 0,4.7338 -3.83756,8.5714 -8.57143,8.5714 -4.73387,0 -8.57143,-3.8376 -8.57143,-8.5714 0,-4.7339 3.83756,-8.5715 8.57143,-8.5715 4.73387,0 8.57143,3.8376 8.57143,8.5715 z"
             transform="translate(65.714268,78.790753)" />
          <path
             transform="translate(105.71427,78.790753)"
             d="m 860.00002,1182.8572 c 0,4.7338 -3.83756,8.5714 -8.57143,8.5714 -4.73387,0 -8.57143,-3.8376 -8.57143,-8.5714 0,-4.7339 3.83756,-8.5715 8.57143,-8.5715 4.73387,0 8.57143,3.8376 8.57143,8.5715 z"
             sodipodi:ry="8.5714283"
             sodipodi:rx="8.5714283"
             sodipodi:cy="1182.8572"
             sodipodi:cx="851.42859"
             id="path3256"
             style="fill:#333333;fill-opacity:1;fill-rule:nonzero;stroke:none"
             sodipodi:type="arc" />
          <path
             sodipodi:type="arc"
             style="fill:#333333;fill-opacity:1;fill-rule:nonzero;stroke:none"
             id="path3258"
             sodipodi:cx="851.42859"
             sodipodi:cy="1182.8572"
             sodipodi:rx="8.5714283"
             sodipodi:ry="8.5714283"
             d="m 860.00002,1182.8572 c 0,4.7338 -3.83756,8.5714 -8.57143,8.5714 -4.73387,0 -8.57143,-3.8376 -8.57143,-8.5714 0,-4.7339 3.83756,-8.5715 8.57143,-8.5715 4.73387,0 8.57143,3.8376 8.57143,8.5715 z"
             transform="translate(145.71427,78.790753)" />
          <g
             transform="translate(-2.8571429,-43.57143)"
             id="g3264"
             style="fill:#333333">
            <g
               id="g3266"
               transform="translate(-11.428589,0)"
               style="fill:#333333">
              <path
                 transform="translate(0,-37.637817)"
                 d="m 860.00002,1182.8572 c 0,4.7338 -3.83756,8.5714 -8.57143,8.5714 -4.73387,0 -8.57143,-3.8376 -8.57143,-8.5714 0,-4.7339 3.83756,-8.5715 8.57143,-8.5715 4.73387,0 8.57143,3.8376 8.57143,8.5715 z"
                 sodipodi:ry="8.5714283"
                 sodipodi:rx="8.5714283"
                 sodipodi:cy="1182.8572"
                 sodipodi:cx="851.42859"
                 id="path3268"
                 style="fill:#333333;fill-opacity:1;fill-rule:nonzero;stroke:none"
                 sodipodi:type="arc" />
              <path
                 sodipodi:type="arc"
                 style="fill:#333333;fill-opacity:1;fill-rule:nonzero;stroke:none"
                 id="path3270"
                 sodipodi:cx="851.42859"
                 sodipodi:cy="1182.8572"
                 sodipodi:rx="8.5714283"
                 sodipodi:ry="8.5714283"
                 d="m 860.00002,1182.8572 c 0,4.7338 -3.83756,8.5714 -8.57143,8.5714 -4.73387,0 -8.57143,-3.8376 -8.57143,-8.5714 0,-4.7339 3.83756,-8.5715 8.57143,-8.5715 4.73387,0 8.57143,3.8376 8.57143,8.5715 z"
                 transform="translate(40,-37.637817)" />
              <path
                 transform="translate(80,-37.637817)"
                 d="m 860.00002,1182.8572 c 0,4.7338 -3.83756,8.5714 -8.57143,8.5714 -4.73387,0 -8.57143,-3.8376 -8.57143,-8.5714 0,-4.7339 3.83756,-8.5715 8.57143,-8.5715 4.73387,0 8.57143,3.8376 8.57143,8.5715 z"
                 sodipodi:ry="8.5714283"
                 sodipodi:rx="8.5714283"
                 sodipodi:cy="1182.8572"
                 sodipodi:cx="851.42859"
                 id="path3272"
                 style="fill:#333333;fill-opacity:1;fill-rule:nonzero;stroke:none"
                 sodipodi:type="arc" />
              <path
                 sodipodi:type="arc"
                 style="fill:#333333;fill-opacity:1;fill-rule:nonzero;stroke:none"
                 id="path3274"
                 sodipodi:cx="851.42859"
                 sodipodi:cy="1182.8572"
                 sodipodi:rx="8.5714283"
                 sodipodi:ry="8.5714283"
                 d="m 860.00002,1182.8572 c 0,4.7338 -3.83756,8.5714 -8.57143,8.5714 -4.73387,0 -8.57143,-3.8376 -8.57143,-8.5714 0,-4.7339 3.83756,-8.5715 8.57143,-8.5715 4.73387,0 8.57143,3.8376 8.57143,8.5715 z"
                 transform="translate(120,-37.637817)" />
              <path
                 transform="translate(160,-37.637817)"
                 d="m 860.00002,1182.8572 c 0,4.7338 -3.83756,8.5714 -8.57143,8.5714 -4.73387,0 -8.57143,-3.8376 -8.57143,-8.5714 0,-4.7339 3.83756,-8.5715 8.57143,-8.5715 4.73387,0 8.57143,3.8376 8.57143,8.5715 z"
                 sodipodi:ry="8.5714283"
                 sodipodi:rx="8.5714283"
                 sodipodi:cy="1182.8572"
                 sodipodi:cx="851.42859"
                 id="path3276"
                 style="fill:#333333;fill-opacity:1;fill-rule:nonzero;stroke:none"
                 sodipodi:type="arc" />
              <path
                 sodipodi:type="arc"
                 style="fill:#333333;fill-opacity:1;fill-rule:nonzero;stroke:none"
                 id="path3278"
                 sodipodi:cx="851.42859"
                 sodipodi:cy="1182.8572"
                 sodipodi:rx="8.5714283"
                 sodipodi:ry="8.5714283"
                 d="m 860.00002,1182.8572 c 0,4.7338 -3.83756,8.5714 -8.57143,8.5714 -4.73387,0 -8.57143,-3.8376 -8.57143,-8.5714 0,-4.7339 3.83756,-8.5715 8.57143,-8.5715 4.73387,0 8.57143,3.8376 8.57143,8.5715 z"
                 transform="translate(200,-37.637817)" />
              <path
                 transform="translate(240,-37.637817)"
                 d="m 860.00002,1182.8572 c 0,4.7338 -3.83756,8.5714 -8.57143,8.5714 -4.73387,0 -8.57143,-3.8376 -8.57143,-8.5714 0,-4.7339 3.83756,-8.5715 8.57143,-8.5715 4.73387,0 8.57143,3.8376 8.57143,8.5715 z"
                 sodipodi:ry="8.5714283"
                 sodipodi:rx="8.5714283"
                 sodipodi:cy="1182.8572"
                 sodipodi:cx="851.42859"
                 id="path3280"
                 style="fill:#333333;fill-opacity:1;fill-rule:nonzero;stroke:none"
                 sodipodi:type="arc" />
            </g>
          </g>
          <path
             transform="translate(25.714268,-121.20925)"
             d="m 860.00002,1182.8572 c 0,4.7338 -3.83756,8.5714 -8.57143,8.5714 -4.73387,0 -8.57143,-3.8376 -8.57143,-8.5714 0,-4.7339 3.83756,-8.5715 8.57143,-8.5715 4.73387,0 8.57143,3.8376 8.57143,8.5715 z"
             sodipodi:ry="8.5714283"
             sodipodi:rx="8.5714283"
             sodipodi:cy="1182.8572"
             sodipodi:cx="851.42859"
             id="path3288"
             style="fill:#333333;fill-opacity:1;fill-rule:nonzero;stroke:none"
             sodipodi:type="arc" />
          <path
             sodipodi:type="arc"
             style="fill:#333333;fill-opacity:1;fill-rule:nonzero;stroke:none"
             id="path3290"
             sodipodi:cx="851.42859"
             sodipodi:cy="1182.8572"
             sodipodi:rx="8.5714283"
             sodipodi:ry="8.5714283"
             d="m 860.00002,1182.8572 c 0,4.7338 -3.83756,8.5714 -8.57143,8.5714 -4.73387,0 -8.57143,-3.8376 -8.57143,-8.5714 0,-4.7339 3.83756,-8.5715 8.57143,-8.5715 4.73387,0 8.57143,3.8376 8.57143,8.5715 z"
             transform="translate(65.714268,-121.20925)" />
          <path
             transform="translate(105.71427,-121.20925)"
             d="m 860.00002,1182.8572 c 0,4.7338 -3.83756,8.5714 -8.57143,8.5714 -4.73387,0 -8.57143,-3.8376 -8.57143,-8.5714 0,-4.7339 3.83756,-8.5715 8.57143,-8.5715 4.73387,0 8.57143,3.8376 8.57143,8.5715 z"
             sodipodi:ry="8.5714283"
             sodipodi:rx="8.5714283"
             sodipodi:cy="1182.8572"
             sodipodi:cx="851.42859"
             id="path3292"
             style="fill:#333333;fill-opacity:1;fill-rule:nonzero;stroke:none"
             sodipodi:type="arc" />
          <path
             sodipodi:type="arc"
             style="fill:#333333;fill-opacity:1;fill-rule:nonzero;stroke:none"
             id="path3294"
             sodipodi:cx="851.42859"
             sodipodi:cy="1182.8572"
             sodipodi:rx="8.5714283"
             sodipodi:ry="8.5714283"
             d="m 860.00002,1182.8572 c 0,4.7338 -3.83756,8.5714 -8.57143,8.5714 -4.73387,0 -8.57143,-3.8376 -8.57143,-8.5714 0,-4.7339 3.83756,-8.5715 8.57143,-8.5715 4.73387,0 8.57143,3.8376 8.57143,8.5715 z"
             transform="translate(145.71427,-121.20925)" />
          <path
             transform="translate(185.71427,-121.20925)"
             d="m 860.00002,1182.8572 c 0,4.7338 -3.83756,8.5714 -8.57143,8.5714 -4.73387,0 -8.57143,-3.8376 -8.57143,-8.5714 0,-4.7339 3.83756,-8.5715 8.57143,-8.5715 4.73387,0 8.57143,3.8376 8.57143,8.5715 z"
             sodipodi:ry="8.5714283"
             sodipodi:rx="8.5714283"
             sodipodi:cy="1182.8572"
             sodipodi:cx="851.42859"
             id="path3296"
             style="fill:#333333;fill-opacity:1;fill-rule:nonzero;stroke:none"
             sodipodi:type="arc" />
          <path
             transform="translate(65.714268,-161.20925)"
             d="m 860.00002,1182.8572 c 0,4.7338 -3.83756,8.5714 -8.57143,8.5714 -4.73387,0 -8.57143,-3.8376 -8.57143,-8.5714 0,-4.7339 3.83756,-8.5715 8.57143,-8.5715 4.73387,0 8.57143,3.8376 8.57143,8.5715 z"
             sodipodi:ry="8.5714283"
             sodipodi:rx="8.5714283"
             sodipodi:cy="1182.8572"
             sodipodi:cx="851.42859"
             id="path3308"
             style="fill:#333333;fill-opacity:1;fill-rule:nonzero;stroke:none"
             sodipodi:type="arc" />
          <path
             sodipodi:type="arc"
             style="fill:#333333;fill-opacity:1;fill-rule:nonzero;stroke:none"
             id="path3310"
             sodipodi:cx="851.42859"
             sodipodi:cy="1182.8572"
             sodipodi:rx="8.5714283"
             sodipodi:ry="8.5714283"
             d="m 860.00002,1182.8572 c 0,4.7338 -3.83756,8.5714 -8.57143,8.5714 -4.73387,0 -8.57143,-3.8376 -8.57143,-8.5714 0,-4.7339 3.83756,-8.5715 8.57143,-8.5715 4.73387,0 8.57143,3.8376 8.57143,8.5715 z"
             transform="translate(105.71427,-161.20925)" />
          <path
             transform="translate(145.71427,-161.20925)"
             d="m 860.00002,1182.8572 c 0,4.7338 -3.83756,8.5714 -8.57143,8.5714 -4.73387,0 -8.57143,-3.8376 -8.57143,-8.5714 0,-4.7339 3.83756,-8.5715 8.57143,-8.5715 4.73387,0 8.57143,3.8376 8.57143,8.5715 z"
             sodipodi:ry="8.5714283"
             sodipodi:rx="8.5714283"
             sodipodi:cy="1182.8572"
             sodipodi:cx="851.42859"
             id="path3312"
             style="fill:#333333;fill-opacity:1;fill-rule:nonzero;stroke:none"
             sodipodi:type="arc" />
        </g>
        <path
           style="opacity:0.3;fill:#1a1a1a;fill-opacity:1;fill-rule:nonzero;stroke:none"
           d="m 959.99997,1044.1167 c -73.05562,0 -132.28728,48.1607 -132.28728,107.5613 0,30.4982 15.63133,58.021 40.71185,77.5944 l 0,32.1212 15.50303,188.1204 152.14483,0 15.5031,-188.1204 0,-32.1212 c 25.0805,-19.5734 40.7118,-47.0962 40.7118,-77.5944 0,-59.4006 -59.2317,-107.5613 -132.28733,-107.5613 z"
           id="path3149"
           inkscape:connector-curvature="0" />
        <path
           style="fill:#4d4d4d;fill-opacity:1;fill-rule:nonzero;stroke:none"
           d="m 919.65625,1274.3598 6.6875,175.7891 67.3125,0 6.68755,-175.7891 c -12.72398,2.6479 -26.28639,4.0781 -40.3438,4.0781 -14.05742,0 -27.6198,-1.4302 -40.34375,-4.0781 z"
           id="path3423"
           inkscape:connector-curvature="0" />
        <path
           inkscape:connector-curvature="0"
           id="path3444"
           d="m 924.70702,1272.159 5.85026,180.1907 58.88545,0 5.85035,-180.1907 c -11.13106,2.7142 -22.99555,4.1803 -35.29307,4.1803 -12.29753,0 -24.16199,-1.4661 -35.29299,-4.1803 z"
           style="fill:#666666;fill-opacity:1;fill-rule:nonzero;stroke:none" />
        <g
           id="g3460"
           style="fill:#333333">
          <path
             d="m 935.72265,1310.9618 c -0.15624,0 -0.32551,-0.01 -0.50782,-0.019 -0.19529,-10e-5 -0.37759,-0.013 -0.54687,-0.039 -0.18228,-0.013 -0.34504,-0.033 -0.48828,-0.059 -0.15624,-0.013 -0.27342,-0.033 -0.35156,-0.059 l 0,-5.5859 c 0.10418,0.026 0.24741,0.052 0.42968,0.078 0.18231,0.026 0.37762,0.046 0.58594,0.059 0.19533,0.026 0.39064,0.039 0.58594,0.039 0.19532,0.013 0.35808,0.019 0.48828,0.019 0.76824,0 1.47788,-0.098 2.12891,-0.293 0.63803,-0.1953 1.19141,-0.5143 1.66015,-0.957 0.45574,-0.4297 0.81381,-1.0026 1.07422,-1.7188 0.24741,-0.7031 0.3711,-1.569 0.37109,-2.5976 l 0,-11.1133 5.95704,0 0,21.8359 -4.51172,0 -0.87891,-3.2812 -0.29297,0 c -0.31249,0.5599 -0.65103,1.0677 -1.01562,1.5234 -0.36458,0.4557 -0.76822,0.8398 -1.21094,1.1524 -0.45572,0.3255 -0.96353,0.5729 -1.52344,0.7422 -0.5729,0.1822 -1.22394,0.2734 -1.95312,0.2734"
             style="font-size:40px;font-style:normal;font-variant:normal;font-weight:bold;font-stretch:normal;line-height:125%;letter-spacing:0px;word-spacing:0px;fill:#333333;fill-opacity:1;stroke:none;font-family:Droid Sans;-inkscape-font-specification:Droid Sans Bold"
             id="path3451"
             inkscape:connector-curvature="0" />
          <path
             d="m 960.03906,1306.6058 c 0.58593,0 1.13931,-0.065 1.66016,-0.1953 0.53384,-0.1302 1.0742,-0.2929 1.62109,-0.4883 l 0,4.4336 c -0.55991,0.2865 -1.25652,0.5209 -2.08984,0.7032 -0.82033,0.1953 -1.71876,0.2929 -2.69531,0.2929 -0.95053,0 -1.83595,-0.1106 -2.65625,-0.332 -0.82032,-0.2214 -1.52996,-0.6055 -2.12891,-1.1523 -0.59896,-0.5599 -1.07422,-1.3021 -1.42578,-2.2266 -0.33855,-0.9375 -0.50782,-2.1094 -0.50781,-3.5156 l 0,-10.5274 -2.85157,0 0,-2.5195 3.28125,-1.9922 1.71875,-4.6094 3.8086,0 0,4.6485 5.3125,0 0,4.4726 -5.3125,0 0,10.5274 c -1e-5,0.8463 0.20832,1.4713 0.625,1.875 0.41665,0.4036 0.96353,0.6054 1.64062,0.6054"
             style="font-size:40px;font-style:normal;font-variant:normal;font-weight:bold;font-stretch:normal;line-height:125%;letter-spacing:0px;word-spacing:0px;fill:#333333;fill-opacity:1;stroke:none;font-family:Droid Sans;-inkscape-font-specification:Droid Sans Bold"
             id="path3453"
             inkscape:connector-curvature="0" />
          <path
             d="m 972.32422,1310.9613 -7.71485,-21.8359 6.23047,0 3.61328,12.4414 c 0.22135,0.7422 0.41015,1.5169 0.56641,2.3242 0.16926,0.7943 0.27343,1.5104 0.3125,2.1484 l 0.11719,0 c 0.0391,-0.6901 0.13671,-1.4192 0.29297,-2.1875 0.16926,-0.7812 0.36457,-1.5429 0.58593,-2.2851 l 3.59375,-12.4414 6.25,0 -7.71484,21.8359 -6.13281,0"
             style="font-size:40px;font-style:normal;font-variant:normal;font-weight:bold;font-stretch:normal;line-height:125%;letter-spacing:0px;word-spacing:0px;fill:#333333;fill-opacity:1;stroke:none;font-family:Droid Sans;-inkscape-font-specification:Droid Sans Bold"
             id="path3455"
             inkscape:connector-curvature="0" />
        </g>
        <g
           style="fill:#1a1a1a"
           id="g3465"
           transform="matrix(1.0771938,0,0,1.0771938,-74.105996,-100.69596)">
          <path
             inkscape:connector-curvature="0"
             id="path3467"
             style="font-size:40px;font-style:normal;font-variant:normal;font-weight:bold;font-stretch:normal;line-height:125%;letter-spacing:0px;word-spacing:0px;fill:#1a1a1a;fill-opacity:1;stroke:none;font-family:Droid Sans;-inkscape-font-specification:Droid Sans Bold"
             d="m 935.72265,1310.9618 c -0.15624,0 -0.32551,-0.01 -0.50782,-0.019 -0.19529,-10e-5 -0.37759,-0.013 -0.54687,-0.039 -0.18228,-0.013 -0.34504,-0.033 -0.48828,-0.059 -0.15624,-0.013 -0.27342,-0.033 -0.35156,-0.059 l 0,-5.5859 c 0.10418,0.026 0.24741,0.052 0.42968,0.078 0.18231,0.026 0.37762,0.046 0.58594,0.059 0.19533,0.026 0.39064,0.039 0.58594,0.039 0.19532,0.013 0.35808,0.019 0.48828,0.019 0.76824,0 1.47788,-0.098 2.12891,-0.293 0.63803,-0.1953 1.19141,-0.5143 1.66015,-0.957 0.45574,-0.4297 0.81381,-1.0026 1.07422,-1.7188 0.24741,-0.7031 0.3711,-1.569 0.37109,-2.5976 l 0,-11.1133 5.95704,0 0,21.8359 -4.51172,0 -0.87891,-3.2812 -0.29297,0 c -0.31249,0.5599 -0.65103,1.0677 -1.01562,1.5234 -0.36458,0.4557 -0.76822,0.8398 -1.21094,1.1524 -0.45572,0.3255 -0.96353,0.5729 -1.52344,0.7422 -0.5729,0.1822 -1.22394,0.2734 -1.95312,0.2734" />
          <path
             inkscape:connector-curvature="0"
             id="path3469"
             style="font-size:40px;font-style:normal;font-variant:normal;font-weight:bold;font-stretch:normal;line-height:125%;letter-spacing:0px;word-spacing:0px;fill:#1a1a1a;fill-opacity:1;stroke:none;font-family:Droid Sans;-inkscape-font-specification:Droid Sans Bold"
             d="m 960.03906,1306.6058 c 0.58593,0 1.13931,-0.065 1.66016,-0.1953 0.53384,-0.1302 1.0742,-0.2929 1.62109,-0.4883 l 0,4.4336 c -0.55991,0.2865 -1.25652,0.5209 -2.08984,0.7032 -0.82033,0.1953 -1.71876,0.2929 -2.69531,0.2929 -0.95053,0 -1.83595,-0.1106 -2.65625,-0.332 -0.82032,-0.2214 -1.52996,-0.6055 -2.12891,-1.1523 -0.59896,-0.5599 -1.07422,-1.3021 -1.42578,-2.2266 -0.33855,-0.9375 -0.50782,-2.1094 -0.50781,-3.5156 l 0,-10.5274 -2.85157,0 0,-2.5195 3.28125,-1.9922 1.71875,-4.6094 3.8086,0 0,4.6485 5.3125,0 0,4.4726 -5.3125,0 0,10.5274 c -1e-5,0.8463 0.20832,1.4713 0.625,1.875 0.41665,0.4036 0.96353,0.6054 1.64062,0.6054" />
          <path
             inkscape:connector-curvature="0"
             id="path3471"
             style="font-size:40px;font-style:normal;font-variant:normal;font-weight:bold;font-stretch:normal;line-height:125%;letter-spacing:0px;word-spacing:0px;fill:#1a1a1a;fill-opacity:1;stroke:none;font-family:Droid Sans;-inkscape-font-specification:Droid Sans Bold"
             d="m 972.32422,1310.9613 -7.71485,-21.8359 6.23047,0 3.61328,12.4414 c 0.22135,0.7422 0.41015,1.5169 0.56641,2.3242 0.16926,0.7943 0.27343,1.5104 0.3125,2.1484 l 0.11719,0 c 0.0391,-0.6901 0.13671,-1.4192 0.29297,-2.1875 0.16926,-0.7812 0.36457,-1.5429 0.58593,-2.2851 l 3.59375,-12.4414 6.25,0 -7.71484,21.8359 -6.13281,0" />
        </g>
      </g>
      <path
         id="path3553"
         transform="translate(0,-37.637817)"
         d="M 608.46875 180.875 C 523.66919 180.875 454.9375 268.61274 454.9375 376.84375 C 454.9375 485.07476 523.66919 572.8125 608.46875 572.8125 C 644.58546 572.8125 677.78131 556.88548 704 530.25 C 703.37752 524.26505 702.86817 518.23382 702.46875 512.15625 C 644.15156 467.16435 608.46875 406.89264 608.46875 340.625 C 608.46875 287.49055 631.41226 238.2079 670.5625 197.5625 C 651.57717 186.83425 630.56903 180.875 608.46875 180.875 z M 1311.5312 180.875 C 1289.431 180.875 1268.4228 186.83425 1249.4375 197.5625 C 1288.5877 238.2079 1311.5312 287.49057 1311.5312 340.625 C 1311.5312 406.89852 1275.8576 467.19433 1217.5312 512.1875 C 1217.1322 518.25394 1216.6212 524.27596 1216 530.25 C 1242.2187 556.88548 1275.4146 572.8125 1311.5312 572.8125 C 1396.3309 572.8125 1465.0625 485.07476 1465.0625 376.84375 C 1465.0625 268.61274 1396.3309 180.875 1311.5312 180.875 z M 761.75 388.0625 C 761.32897 390.39293 761.09375 392.77012 761.09375 395.1875 C 761.09375 395.93251 761.11534 396.66881 761.15625 397.40625 C 761.40924 394.31008 761.61129 391.19984 761.75 388.0625 z M 1158.25 388.0625 C 1158.3887 391.19984 1158.5908 394.31008 1158.8438 397.40625 C 1158.8847 396.66881 1158.9062 395.93251 1158.9062 395.1875 C 1158.9062 392.77012 1158.671 390.39293 1158.25 388.0625 z "
         style="fill:#1a1a1a;fill-opacity:1;fill-rule:nonzero;stroke:none" />
      <path
         inkscape:connector-curvature="0"
         style="fill:#333333;fill-opacity:1;fill-rule:nonzero;stroke:none"
         d="m 622.96495,151.3184 c -81.30267,0 -147.20004,84.11967 -147.20004,187.88753 0,103.76786 65.89737,187.88753 147.20004,187.88753 34.62735,0 66.45429,-15.27023 91.5918,-40.80734 -0.59681,-5.73815 -1.08516,-11.52066 -1.46811,-17.34761 -55.91235,-43.13656 -90.12369,-100.92282 -90.12369,-164.45777 0,-50.94333 21.99738,-98.19369 59.53317,-137.16299 -18.20243,-10.28584 -38.34425,-15.99935 -59.53317,-15.99935 z m 674.07005,0 c -21.1888,0 -41.3307,5.71351 -59.5331,15.99935 37.5357,38.9693 59.5331,86.21968 59.5331,137.16299 0,63.54058 -34.2025,121.34996 -90.1237,164.48773 -0.3825,5.81628 -0.8725,11.58997 -1.468,17.31765 25.1375,25.53711 56.9645,40.80734 91.5917,40.80734 81.3028,0 147.2001,-84.11967 147.2001,-187.88753 0,-103.76786 -65.8973,-187.88753 -147.2001,-187.88753 z M 769.92529,349.96205 c -0.40366,2.23433 -0.62919,4.51349 -0.62919,6.83118 0,0.71429 0.0207,1.42023 0.0599,2.12726 0.24256,-2.96849 0.43628,-5.95048 0.56926,-8.95844 z m 380.14941,0 c 0.133,3.00796 0.3268,5.98995 0.5693,8.95844 0.039,-0.70703 0.06,-1.41297 0.06,-2.12726 0,-2.31769 -0.2255,-4.59685 -0.6292,-6.83118 z"
         id="path3585" />
      <path
         inkscape:connector-curvature="0"
         id="path3587"
         d="m 622.76562,151.33093 c -72.89909,0 -133.39422,67.62349 -145.125,156.40625 47.18574,-29.26345 100.9683,-54.25388 159.8125,-73.96875 10.20697,-23.94341 25.43529,-46.28782 44.84375,-66.4375 -18.20243,-10.28584 -38.34232,-16 -59.53125,-16 z m 674.06248,0 c -21.1887,0 -41.3288,5.71416 -59.5312,16 19.9164,20.67702 35.4539,43.65806 45.6562,68.3125 58.8137,20.14679 112.4744,45.62138 159.4063,75.34375 -10.6615,-90.38445 -71.7409,-159.65625 -145.5313,-159.65625 z"
         style="opacity:0.5;fill:#808080;fill-opacity:1;fill-rule:nonzero;stroke:none" />
      <g
         style="fill:#008000"
         id="g3661">
        <g
           id="g3608"
           transform="matrix(1.2999564,0,0,1.2999564,-291.43606,-93.561594)"
           style="opacity:0.50000000000000000;fill:#008000">
          <g
             transform="matrix(0.97434332,-0.22506689,0.22506689,0.97434332,-62.078373,263.94121)"
             id="g3598"
             style="fill:#008000">
            <rect
               style="opacity:0.50000000000000000;fill:#008000;fill-opacity:1;fill-rule:nonzero;stroke:none"
               id="rect3594"
               width="177.78685"
               height="109.09647"
               x="1018.2338"
               y="284.64627" />
            <rect
               y="180.23543"
               x="1044.9762"
               height="109.09647"
               width="177.78685"
               id="rect3596"
               style="opacity:0.50000000000000000;fill:#008000;fill-opacity:1;fill-rule:nonzero;stroke:none"
               transform="matrix(0.99566791,0.09298066,-0.09298066,0.99566791,0,0)" />
          </g>
          <g
             id="g3602"
             transform="matrix(-0.97434332,-0.22506689,-0.22506689,0.97434332,1987.4292,263.94121)"
             style="fill:#008000">
            <rect
               y="284.64627"
               x="1018.2338"
               height="109.09647"
               width="177.78685"
               id="rect3604"
               style="opacity:0.50000000000000000;fill:#008000;fill-opacity:1;fill-rule:nonzero;stroke:none" />
            <rect
               transform="matrix(0.99566791,0.09298066,-0.09298066,0.99566791,0,0)"
               style="opacity:0.50000000000000000;fill:#008000;fill-opacity:1;fill-rule:nonzero;stroke:none"
               id="rect3606"
               width="177.78685"
               height="109.09647"
               x="1044.9762"
               y="180.23543" />
          </g>
        </g>
        <path
           inkscape:connector-curvature="0"
           style="opacity:0.50000000000000000;fill:#008000;fill-opacity:1;fill-rule:nonzero;stroke:none"
           d="m 683.59375,246.95593 -5.65625,22.15625 207.78125,52.90625 0,7.78125 148.56245,0 0,-7.78125 207.7813,-52.90625 -5.6563,-22.15625 -227.0312,57.8125 0.5625,2.15625 -99.875,0 0.5625,-2.15625 -227.03125,-57.8125 z"
           id="rect3616" />
      </g>
      <g
         style="fill:#1a1a1a"
         transform="translate(1.428584,0)"
         id="g3633">
        <path
           sodipodi:type="arc"
           style="opacity:0.50000000000000000;fill:#1a1a1a;fill-opacity:1;fill-rule:nonzero;stroke:none"
           id="path3629"
           sodipodi:cx="828.57141"
           sodipodi:cy="395.71429"
           sodipodi:rx="22.857143"
           sodipodi:ry="22.857143"
           d="m 851.42855,395.71429 c 0,12.62366 -10.23349,22.85715 -22.85714,22.85715 -12.62365,0 -22.85714,-10.23349 -22.85714,-22.85715 0,-12.62365 10.23349,-22.85714 22.85714,-22.85714 12.62365,0 22.85714,10.23349 22.85714,22.85714 z"
           transform="translate(0,-37.637817)" />
        <path
           transform="translate(260,-37.637817)"
           d="m 851.42855,395.71429 c 0,12.62366 -10.23349,22.85715 -22.85714,22.85715 -12.62365,0 -22.85714,-10.23349 -22.85714,-22.85715 0,-12.62365 10.23349,-22.85714 22.85714,-22.85714 12.62365,0 22.85714,10.23349 22.85714,22.85714 z"
           sodipodi:ry="22.857143"
           sodipodi:rx="22.857143"
           sodipodi:cy="395.71429"
           sodipodi:cx="828.57141"
           id="path3631"
           style="opacity:0.50000000000000000;fill:#1a1a1a;fill-opacity:1;fill-rule:nonzero;stroke:none"
           sodipodi:type="arc" />
      </g>
    </g>
  </g>
</svg>
