<?xml version="1.0" encoding="UTF-8" standalone="no"?>
<!-- Created with Inkscape (http://www.inkscape.org/) -->

<svg
   xmlns:dc="http://purl.org/dc/elements/1.1/"
   xmlns:cc="http://creativecommons.org/ns#"
   xmlns:rdf="http://www.w3.org/1999/02/22-rdf-syntax-ns#"
   xmlns:svg="http://www.w3.org/2000/svg"
   xmlns="http://www.w3.org/2000/svg"
   xmlns:sodipodi="http://sodipodi.sourceforge.net/DTD/sodipodi-0.dtd"
   xmlns:inkscape="http://www.inkscape.org/namespaces/inkscape"
   width="1920"
   height="1080"
   id="svg3991"
   version="1.1"
   inkscape:version="0.48.3.1 r9886"
   sodipodi:docname="rtv_wallpaper_02.svg">
  <defs
     id="defs3993" />
  <sodipodi:namedview
     id="base"
     pagecolor="#ffffff"
     bordercolor="#666666"
     borderopacity="1.0"
     inkscape:pageopacity="0.0"
     inkscape:pageshadow="2"
     inkscape:zoom="0.175"
     inkscape:cx="809.77427"
     inkscape:cy="532.83646"
     inkscape:document-units="px"
     inkscape:current-layer="layer1"
     showgrid="false"
     inkscape:window-width="1022"
     inkscape:window-height="578"
     inkscape:window-x="0"
     inkscape:window-y="20"
     inkscape:window-maximized="0" />
  <metadata
     id="metadata3996">
    <rdf:RDF>
      <cc:Work
         rdf:about="">
        <dc:format>image/svg+xml</dc:format>
        <dc:type
           rdf:resource="http://purl.org/dc/dcmitype/StillImage" />
        <dc:title></dc:title>
      </cc:Work>
    </rdf:RDF>
  </metadata>
  <g
     inkscape:label="Ebene 1"
     inkscape:groupmode="layer"
     id="layer1"
     transform="translate(0,27.637817)">
    <g
       id="g4734"
       style="opacity:0.59960004000000000;fill:#ffffff">
      <path
         transform="translate(0,-27.637817)"
         id="rect4568"
         d="m 0,0 0,1080 110.5625,0 L 290.53125,0 0,0 z"
         style="opacity:0.50000000000000000;fill:#ffffff;fill-opacity:1;fill-rule:nonzero;stroke:none"
         inkscape:connector-curvature="0" />
      <g
         id="g4717"
         style="fill:#ffffff">
        <g
           id="g4700"
           style="fill:#ffffff">
          <path
             transform="translate(0,-27.637817)"
             id="rect4572"
             d="M 79.40625,0 16.0625,1080 555.9375,1080 619.34375,0 79.40625,0 z"
             style="opacity:0.50000000000000000;fill:#ffffff;fill-opacity:1;fill-rule:nonzero;stroke:none"
             inkscape:connector-curvature="0" />
          <path
             transform="translate(0,-27.637817)"
             id="rect4574"
             d="m 477.15625,0 -17.09375,1080 715.1563,0 L 1192.2812,0 477.15625,0 z"
             style="opacity:0.50000000000000000;fill:#ffffff;fill-opacity:1;fill-rule:nonzero;stroke:none"
             inkscape:connector-curvature="0" />
          <path
             transform="translate(0,-27.637817)"
             id="rect4576"
             d="m 935.65625,0 97.62495,1080 717.9688,0 L 1653.625,0 935.65625,0 z"
             style="opacity:0.50000000000000000;fill:#ffffff;fill-opacity:1;fill-rule:nonzero;stroke:none"
             inkscape:connector-curvature="0" />
          <path
             transform="translate(0,-27.637817)"
             id="rect4591"
             d="m 94.875,0 -45.46875,1080 539.4375,0 L 633.9375,8.71875 459.3125,0 94.875,0 z"
             style="opacity:0.50000000000000000;fill:#ffffff;fill-opacity:1;fill-rule:nonzero;stroke:none"
             inkscape:connector-curvature="0" />
        </g>
        <g
           id="g4706"
           style="fill:#ffffff">
          <g
             id="g4695"
             style="fill:#ffffff">
            <path
               inkscape:connector-curvature="0"
               style="opacity:0.50000000000000000;fill:#ffffff;fill-opacity:1;fill-rule:nonzero;stroke:none"
               d="m 0,0 0,1080 146.9375,0 L 308.59375,0 0,0 z"
               id="rect4589"
               transform="translate(0,-27.637817)" />
            <path
               inkscape:connector-curvature="0"
               style="opacity:0.50000000000000000;fill:#ffffff;fill-opacity:1;fill-rule:nonzero;stroke:none"
               d="m 491.21875,0 0.84375,1080 715.0625,0 L 1206.2812,0 491.21875,0 z"
               id="rect4593"
               transform="translate(0,-27.637817)" />
            <path
               inkscape:connector-curvature="0"
               style="opacity:0.50000000000000000;fill:#ffffff;fill-opacity:1;fill-rule:nonzero;stroke:none"
               d="m 948.0625,0 115.6875,1080 719.1562,0 L 1667.2188,0 948.0625,0 z"
               id="rect4595"
               transform="translate(0,-27.637817)" />
          </g>
          <g
             transform="translate(0,-8.4999999e-6)"
             id="g4689"
             style="fill:#ffffff">
            <path
               style="opacity:0.50000000000000000;fill:#ffffff;fill-opacity:1;fill-rule:nonzero;stroke:none"
               d="m 994.28571,-27.637817 0,1080.000017 730.02459,0 195.6897,0 0,-1080.000017 -195.4788,0 -730.23549,0 z"
               id="path4687"
               inkscape:connector-curvature="0" />
            <path
               inkscape:connector-curvature="0"
               id="path4685"
               d="m 0,0 0,1080 1514.125,0 L 1920,1080 1920,0 1514.5625,0 0,0 z"
               style="opacity:0.50000000000000000;fill:#ffffff;fill-opacity:1;fill-rule:nonzero;stroke:none"
               transform="translate(0,-27.637817)" />
            <path
               inkscape:connector-curvature="0"
               style="opacity:0.50000000000000000;fill:#ffffff;fill-opacity:1;fill-rule:nonzero;stroke:none"
               d="M 1500.5938,0 1482.25,1080 1920,1080 1920,0 1500.5938,0 z"
               id="rect4578"
               transform="translate(0,-27.637817)" />
            <path
               inkscape:connector-curvature="0"
               style="opacity:0.50000000000000000;fill:#ffffff;fill-opacity:1;fill-rule:nonzero;stroke:none"
               d="m 0,0 0,1080 1514.125,0 L 1920,1080 1920,0 1514.5625,0 0,0 z"
               id="rect4597"
               transform="translate(0,-27.637817)" />
          </g>
        </g>
      </g>
    </g>
    <path
       style="fill:#000000;fill-opacity:1;fill-rule:nonzero;stroke:none"
       d="M 818.09375 747.125 C 711.53896 747.125 618.89751 801.93935 571.46875 882.65625 C 506.6238 900.64747 453.96965 978.10143 434.625 1080 L 1485.375 1080 C 1466.0304 978.10143 1413.3762 900.64747 1348.5312 882.65625 C 1301.0948 801.93935 1208.4299 747.125 1101.875 747.125 C 1050.0957 747.125 1001.6244 760.08617 960 782.65625 C 918.37825 760.09022 869.86813 747.125 818.09375 747.125 z "
       id="path4524"
       transform="translate(0,-27.637817)" />
    <path
       style="fill:#333333;fill-opacity:1;fill-rule:nonzero;stroke:none"
       d="M 822.09375 751.125 C 715.53896 751.125 622.89751 805.93935 575.46875 886.65625 C 511.47554 904.41116 459.35722 980.0795 439.40625 1080 L 456.875 1080 C 477.98995 981.7149 528.96755 907.83118 591.1875 890.125 C 637.49059 809.30044 726.88616 753.80849 830.25 751.21875 C 827.53712 751.14704 824.82534 751.125 822.09375 751.125 z "
       id="path4560"
       transform="translate(0,-27.637817)" />
    <path
       style="fill:#1a1a1a;fill-opacity:1;fill-rule:nonzero;stroke:none"
       d="m 960,60.94254 c -170.4193,0 -308.5625,113.84313 -308.5625,254.28125 0,42.29192 12.522,82.16387 34.6875,117.25 -4.009,16.55435 -6.125,33.70944 -6.125,51.3125 0,63.32767 27.32078,121.05683 72.15625,164.625 8.82109,125.4034 98.49812,223.9375 207.84375,223.9375 109.3456,0 199.0227,-98.5341 207.8438,-223.9375 44.8354,-43.56817 72.1562,-101.29733 72.1562,-164.625 0,-17.60306 -2.116,-34.75815 -6.125,-51.3125 22.1655,-35.08613 34.6875,-74.95808 34.6875,-117.25 C 1268.5625,174.78567 1130.4193,60.94254 960,60.94254 z"
       id="path4134"
       inkscape:connector-curvature="0" />
    <path
       inkscape:connector-curvature="0"
       id="path4149"
       d="m 960.00001,68.455778 c -167.2633,0 -302.84822,111.734862 -302.84822,249.572192 0,41.50873 12.29012,80.64229 34.04512,115.07865 -3.93475,16.24778 -6.01156,33.08518 -6.01156,50.36224 0,62.1549 26.81482,118.81497 70.81998,161.57631 8.65772,123.08104 96.67402,219.79038 203.99468,219.79038 107.32059,0 195.33699,-96.70934 203.99469,-219.79038 44.0051,-42.76134 70.82,-99.42141 70.82,-161.57631 0,-17.27706 -2.0769,-34.11446 -6.0116,-50.36224 21.755,-34.43636 34.0451,-73.56992 34.0451,-115.07865 0,-137.83733 -135.5849,-249.572192 -302.84819,-249.572192 z"
       style="fill:#4d4d4d;fill-opacity:1;fill-rule:nonzero;stroke:none" />
    <path
       inkscape:connector-curvature="0"
       style="fill:#1a1a1a;fill-opacity:1;fill-rule:nonzero;stroke:none"
       d="m 1016.2931,72.362183 c 112.0639,45.411977 186.375,125.066937 186.375,215.718747 0,35.06716 -11.1256,68.47969 -31.25,98.90625 1.7694,14.87167 2.6875,30.00973 2.6875,45.375 0,65.86576 -16.7314,127.70835 -46.0625,181.21875 -4.4911,103.14664 -53.5248,193.23375 -126.0625,246.8125 88.8149,-20.2347 157.1147,-107.68662 164.6875,-215.34375 44.0051,-42.76134 70.8125,-99.43885 70.8125,-161.59375 0,-17.27706 -2.0653,-34.09597 -6,-50.34375 21.755,-34.43636 34.0313,-73.58502 34.0313,-115.09375 0,-122.76137 -107.5287,-224.799957 -249.2188,-245.656247 z"
       id="path4151" />
    <path
       id="path4169"
       d="m 1018.5517,72.362183 c 107.3766,45.411977 178.5796,125.066937 178.5796,215.718747 0,35.06716 -10.6602,68.47969 -29.9429,98.90625 1.6954,14.87167 2.5751,30.00973 2.5751,45.375 0,65.86576 -16.0316,127.70835 -44.1359,181.21875 -4.3033,103.14664 -51.2861,193.23375 -120.7898,246.8125 85.1001,-20.2347 150.5432,-107.68662 157.7993,-215.34375 42.1645,-42.76134 67.8507,-99.43885 67.8507,-161.59375 0,-17.27706 -1.979,-34.09597 -5.7491,-50.34375 20.8451,-34.43636 32.6079,-73.58502 32.6079,-115.09375 0,-122.76137 -103.0312,-224.799957 -238.7949,-245.656247 z"
       style="fill:#333333;fill-opacity:1;fill-rule:nonzero;stroke:none"
       inkscape:connector-curvature="0" />
    <path
       inkscape:connector-curvature="0"
       style="fill:#666666;fill-opacity:1;fill-rule:nonzero;stroke:none"
       d="m 897.32363,72.362183 c -107.3766,45.411977 -178.5796,125.066937 -178.5796,215.718747 0,35.06716 10.6602,68.47969 29.9429,98.90625 -1.6954,14.87167 -2.5751,30.00973 -2.5751,45.375 0,65.86576 16.0316,127.70835 44.1359,181.21875 4.3033,103.14664 51.2861,193.23375 120.7898,246.8125 -85.1001,-20.2347 -150.5432,-107.68662 -157.7993,-215.34375 -42.1645,-42.76134 -67.8507,-99.43885 -67.8507,-161.59375 0,-17.27706 1.979,-34.09597 5.7491,-50.34375 -20.8451,-34.43636 -32.6079,-73.58502 -32.6079,-115.09375 0,-122.76137 103.0312,-224.799957 238.7949,-245.656247 z"
       id="path4177" />
    <g
       id="g4458"
       transform="translate(0,24)">
      <path
         transform="translate(-147.1272,-783.54879)"
         d="m 1264.711,1453.6549 c 0,87.0311 -70.5527,157.5838 -157.5838,157.5838 -87.0311,0 -157.5838,-70.5527 -157.5838,-157.5838 0,-87.0311 70.5527,-157.5838 157.5838,-157.5838 87.0311,0 157.5838,70.5527 157.5838,157.5838 z"
         sodipodi:ry="157.5838"
         sodipodi:rx="157.5838"
         sodipodi:cy="1453.6549"
         sodipodi:cx="1107.1272"
         id="path3120"
         style="fill:#333333;fill-opacity:1;fill-rule:nonzero;stroke:none"
         sodipodi:type="arc" />
      <path
         id="path3412"
         d="m 960,526.80026 c -79.14135,0 -143.3125,64.1712 -143.3125,143.3125 0,35.4463 12.89678,67.8898 34.21875,92.9063 l 0,-16.2813 c 24.12163,34.2736 63.998,56.6563 109.09375,56.6563 45.0957,0 84.972,-22.3827 109.0938,-56.6563 l 0,16.2813 c 21.3219,-25.0165 34.2187,-57.46 34.2187,-92.9063 0,-79.1413 -64.1712,-143.3125 -143.3125,-143.3125 z"
         style="fill:#4d4d4d;fill-opacity:1;fill-rule:nonzero;stroke:none"
         inkscape:connector-curvature="0" />
      <g
         transform="matrix(1,0,0,0.61878288,2.734375e-6,-16.87106)"
         id="g3417">
        <path
           inkscape:connector-curvature="0"
           style="fill:#1a1a1a;fill-opacity:1;fill-rule:nonzero;stroke:none"
           d="m 850.90625,1271.6875 0,84.125 18.46875,275.625 181.25,0 18.4688,-275.625 0,-84.125 c -24.1217,34.2736 -63.9981,56.6563 -109.0938,56.6563 -45.09575,0 -84.97212,-22.3827 -109.09375,-56.6563 z"
           id="rect3122"
           transform="translate(0,-37.637817)" />
        <path
           style="fill:#333333;fill-opacity:1;fill-rule:nonzero;stroke:none"
           d="m 862.15765,1279.3012 0,44.6738 16.56398,261.6356 162.55667,0 16.5641,-261.6356 0,-44.6738 c -25.3949,25.798 -59.86329,41.6482 -97.84241,41.6482 -37.97908,0 -72.44759,-15.8502 -97.84234,-41.6482 z"
           id="path3144"
           inkscape:connector-curvature="0" />
      </g>
      <g
         style="fill:#333333"
         transform="matrix(0.71111112,0,0,0.71111112,279.36507,-149.50253)"
         id="g3363">
        <g
           style="fill:#333333"
           id="g3200"
           transform="translate(-2.8571429,-3.5714286)">
          <g
             style="fill:#333333"
             transform="translate(-11.428589,0)"
             id="g3191">
            <path
               sodipodi:type="arc"
               style="fill:#333333;fill-opacity:1;fill-rule:nonzero;stroke:none"
               id="path3161"
               sodipodi:cx="851.42859"
               sodipodi:cy="1182.8572"
               sodipodi:rx="8.5714283"
               sodipodi:ry="8.5714283"
               d="m 860.00002,1182.8572 c 0,4.7338 -3.83756,8.5714 -8.57143,8.5714 -4.73387,0 -8.57143,-3.8376 -8.57143,-8.5714 0,-4.7339 3.83756,-8.5715 8.57143,-8.5715 4.73387,0 8.57143,3.8376 8.57143,8.5715 z"
               transform="translate(0,-37.637817)" />
            <path
               transform="translate(40,-37.637817)"
               d="m 860.00002,1182.8572 c 0,4.7338 -3.83756,8.5714 -8.57143,8.5714 -4.73387,0 -8.57143,-3.8376 -8.57143,-8.5714 0,-4.7339 3.83756,-8.5715 8.57143,-8.5715 4.73387,0 8.57143,3.8376 8.57143,8.5715 z"
               sodipodi:ry="8.5714283"
               sodipodi:rx="8.5714283"
               sodipodi:cy="1182.8572"
               sodipodi:cx="851.42859"
               id="path3165"
               style="fill:#333333;fill-opacity:1;fill-rule:nonzero;stroke:none"
               sodipodi:type="arc" />
            <path
               sodipodi:type="arc"
               style="fill:#333333;fill-opacity:1;fill-rule:nonzero;stroke:none"
               id="path3167"
               sodipodi:cx="851.42859"
               sodipodi:cy="1182.8572"
               sodipodi:rx="8.5714283"
               sodipodi:ry="8.5714283"
               d="m 860.00002,1182.8572 c 0,4.7338 -3.83756,8.5714 -8.57143,8.5714 -4.73387,0 -8.57143,-3.8376 -8.57143,-8.5714 0,-4.7339 3.83756,-8.5715 8.57143,-8.5715 4.73387,0 8.57143,3.8376 8.57143,8.5715 z"
               transform="translate(80,-37.637817)" />
            <path
               transform="translate(120,-37.637817)"
               d="m 860.00002,1182.8572 c 0,4.7338 -3.83756,8.5714 -8.57143,8.5714 -4.73387,0 -8.57143,-3.8376 -8.57143,-8.5714 0,-4.7339 3.83756,-8.5715 8.57143,-8.5715 4.73387,0 8.57143,3.8376 8.57143,8.5715 z"
               sodipodi:ry="8.5714283"
               sodipodi:rx="8.5714283"
               sodipodi:cy="1182.8572"
               sodipodi:cx="851.42859"
               id="path3169"
               style="fill:#333333;fill-opacity:1;fill-rule:nonzero;stroke:none"
               sodipodi:type="arc" />
            <path
               sodipodi:type="arc"
               style="fill:#333333;fill-opacity:1;fill-rule:nonzero;stroke:none"
               id="path3171"
               sodipodi:cx="851.42859"
               sodipodi:cy="1182.8572"
               sodipodi:rx="8.5714283"
               sodipodi:ry="8.5714283"
               d="m 860.00002,1182.8572 c 0,4.7338 -3.83756,8.5714 -8.57143,8.5714 -4.73387,0 -8.57143,-3.8376 -8.57143,-8.5714 0,-4.7339 3.83756,-8.5715 8.57143,-8.5715 4.73387,0 8.57143,3.8376 8.57143,8.5715 z"
               transform="translate(160,-37.637817)" />
            <path
               transform="translate(200,-37.637817)"
               d="m 860.00002,1182.8572 c 0,4.7338 -3.83756,8.5714 -8.57143,8.5714 -4.73387,0 -8.57143,-3.8376 -8.57143,-8.5714 0,-4.7339 3.83756,-8.5715 8.57143,-8.5715 4.73387,0 8.57143,3.8376 8.57143,8.5715 z"
               sodipodi:ry="8.5714283"
               sodipodi:rx="8.5714283"
               sodipodi:cy="1182.8572"
               sodipodi:cx="851.42859"
               id="path3173"
               style="fill:#333333;fill-opacity:1;fill-rule:nonzero;stroke:none"
               sodipodi:type="arc" />
            <path
               sodipodi:type="arc"
               style="fill:#333333;fill-opacity:1;fill-rule:nonzero;stroke:none"
               id="path3175"
               sodipodi:cx="851.42859"
               sodipodi:cy="1182.8572"
               sodipodi:rx="8.5714283"
               sodipodi:ry="8.5714283"
               d="m 860.00002,1182.8572 c 0,4.7338 -3.83756,8.5714 -8.57143,8.5714 -4.73387,0 -8.57143,-3.8376 -8.57143,-8.5714 0,-4.7339 3.83756,-8.5715 8.57143,-8.5715 4.73387,0 8.57143,3.8376 8.57143,8.5715 z"
               transform="translate(240,-37.637817)" />
          </g>
        </g>
        <g
           style="fill:#333333"
           transform="translate(-2.8571429,36.428571)"
           id="g3210">
          <g
             style="fill:#333333"
             id="g3212"
             transform="translate(-11.428589,0)">
            <path
               transform="translate(0,-37.637817)"
               d="m 860.00002,1182.8572 c 0,4.7338 -3.83756,8.5714 -8.57143,8.5714 -4.73387,0 -8.57143,-3.8376 -8.57143,-8.5714 0,-4.7339 3.83756,-8.5715 8.57143,-8.5715 4.73387,0 8.57143,3.8376 8.57143,8.5715 z"
               sodipodi:ry="8.5714283"
               sodipodi:rx="8.5714283"
               sodipodi:cy="1182.8572"
               sodipodi:cx="851.42859"
               id="path3214"
               style="fill:#333333;fill-opacity:1;fill-rule:nonzero;stroke:none"
               sodipodi:type="arc" />
            <path
               sodipodi:type="arc"
               style="fill:#333333;fill-opacity:1;fill-rule:nonzero;stroke:none"
               id="path3216"
               sodipodi:cx="851.42859"
               sodipodi:cy="1182.8572"
               sodipodi:rx="8.5714283"
               sodipodi:ry="8.5714283"
               d="m 860.00002,1182.8572 c 0,4.7338 -3.83756,8.5714 -8.57143,8.5714 -4.73387,0 -8.57143,-3.8376 -8.57143,-8.5714 0,-4.7339 3.83756,-8.5715 8.57143,-8.5715 4.73387,0 8.57143,3.8376 8.57143,8.5715 z"
               transform="translate(40,-37.637817)" />
            <path
               transform="translate(80,-37.637817)"
               d="m 860.00002,1182.8572 c 0,4.7338 -3.83756,8.5714 -8.57143,8.5714 -4.73387,0 -8.57143,-3.8376 -8.57143,-8.5714 0,-4.7339 3.83756,-8.5715 8.57143,-8.5715 4.73387,0 8.57143,3.8376 8.57143,8.5715 z"
               sodipodi:ry="8.5714283"
               sodipodi:rx="8.5714283"
               sodipodi:cy="1182.8572"
               sodipodi:cx="851.42859"
               id="path3218"
               style="fill:#333333;fill-opacity:1;fill-rule:nonzero;stroke:none"
               sodipodi:type="arc" />
            <path
               sodipodi:type="arc"
               style="fill:#333333;fill-opacity:1;fill-rule:nonzero;stroke:none"
               id="path3220"
               sodipodi:cx="851.42859"
               sodipodi:cy="1182.8572"
               sodipodi:rx="8.5714283"
               sodipodi:ry="8.5714283"
               d="m 860.00002,1182.8572 c 0,4.7338 -3.83756,8.5714 -8.57143,8.5714 -4.73387,0 -8.57143,-3.8376 -8.57143,-8.5714 0,-4.7339 3.83756,-8.5715 8.57143,-8.5715 4.73387,0 8.57143,3.8376 8.57143,8.5715 z"
               transform="translate(120,-37.637817)" />
            <path
               transform="translate(160,-37.637817)"
               d="m 860.00002,1182.8572 c 0,4.7338 -3.83756,8.5714 -8.57143,8.5714 -4.73387,0 -8.57143,-3.8376 -8.57143,-8.5714 0,-4.7339 3.83756,-8.5715 8.57143,-8.5715 4.73387,0 8.57143,3.8376 8.57143,8.5715 z"
               sodipodi:ry="8.5714283"
               sodipodi:rx="8.5714283"
               sodipodi:cy="1182.8572"
               sodipodi:cx="851.42859"
               id="path3222"
               style="fill:#333333;fill-opacity:1;fill-rule:nonzero;stroke:none"
               sodipodi:type="arc" />
            <path
               sodipodi:type="arc"
               style="fill:#333333;fill-opacity:1;fill-rule:nonzero;stroke:none"
               id="path3224"
               sodipodi:cx="851.42859"
               sodipodi:cy="1182.8572"
               sodipodi:rx="8.5714283"
               sodipodi:ry="8.5714283"
               d="m 860.00002,1182.8572 c 0,4.7338 -3.83756,8.5714 -8.57143,8.5714 -4.73387,0 -8.57143,-3.8376 -8.57143,-8.5714 0,-4.7339 3.83756,-8.5715 8.57143,-8.5715 4.73387,0 8.57143,3.8376 8.57143,8.5715 z"
               transform="translate(200,-37.637817)" />
            <path
               transform="translate(240,-37.637817)"
               d="m 860.00002,1182.8572 c 0,4.7338 -3.83756,8.5714 -8.57143,8.5714 -4.73387,0 -8.57143,-3.8376 -8.57143,-8.5714 0,-4.7339 3.83756,-8.5715 8.57143,-8.5715 4.73387,0 8.57143,3.8376 8.57143,8.5715 z"
               sodipodi:ry="8.5714283"
               sodipodi:rx="8.5714283"
               sodipodi:cy="1182.8572"
               sodipodi:cx="851.42859"
               id="path3226"
               style="fill:#333333;fill-opacity:1;fill-rule:nonzero;stroke:none"
               sodipodi:type="arc" />
          </g>
        </g>
        <g
           style="fill:#333333"
           id="g3228"
           transform="translate(-2.8571429,76.428571)">
          <g
             style="fill:#333333"
             transform="translate(-11.428589,0)"
             id="g3230">
            <path
               sodipodi:type="arc"
               style="fill:#333333;fill-opacity:1;fill-rule:nonzero;stroke:none"
               id="path3232"
               sodipodi:cx="851.42859"
               sodipodi:cy="1182.8572"
               sodipodi:rx="8.5714283"
               sodipodi:ry="8.5714283"
               d="m 860.00002,1182.8572 c 0,4.7338 -3.83756,8.5714 -8.57143,8.5714 -4.73387,0 -8.57143,-3.8376 -8.57143,-8.5714 0,-4.7339 3.83756,-8.5715 8.57143,-8.5715 4.73387,0 8.57143,3.8376 8.57143,8.5715 z"
               transform="translate(0,-37.637817)" />
            <path
               transform="translate(40,-37.637817)"
               d="m 860.00002,1182.8572 c 0,4.7338 -3.83756,8.5714 -8.57143,8.5714 -4.73387,0 -8.57143,-3.8376 -8.57143,-8.5714 0,-4.7339 3.83756,-8.5715 8.57143,-8.5715 4.73387,0 8.57143,3.8376 8.57143,8.5715 z"
               sodipodi:ry="8.5714283"
               sodipodi:rx="8.5714283"
               sodipodi:cy="1182.8572"
               sodipodi:cx="851.42859"
               id="path3234"
               style="fill:#333333;fill-opacity:1;fill-rule:nonzero;stroke:none"
               sodipodi:type="arc" />
            <path
               sodipodi:type="arc"
               style="fill:#333333;fill-opacity:1;fill-rule:nonzero;stroke:none"
               id="path3236"
               sodipodi:cx="851.42859"
               sodipodi:cy="1182.8572"
               sodipodi:rx="8.5714283"
               sodipodi:ry="8.5714283"
               d="m 860.00002,1182.8572 c 0,4.7338 -3.83756,8.5714 -8.57143,8.5714 -4.73387,0 -8.57143,-3.8376 -8.57143,-8.5714 0,-4.7339 3.83756,-8.5715 8.57143,-8.5715 4.73387,0 8.57143,3.8376 8.57143,8.5715 z"
               transform="translate(80,-37.637817)" />
            <path
               transform="translate(120,-37.637817)"
               d="m 860.00002,1182.8572 c 0,4.7338 -3.83756,8.5714 -8.57143,8.5714 -4.73387,0 -8.57143,-3.8376 -8.57143,-8.5714 0,-4.7339 3.83756,-8.5715 8.57143,-8.5715 4.73387,0 8.57143,3.8376 8.57143,8.5715 z"
               sodipodi:ry="8.5714283"
               sodipodi:rx="8.5714283"
               sodipodi:cy="1182.8572"
               sodipodi:cx="851.42859"
               id="path3238"
               style="fill:#333333;fill-opacity:1;fill-rule:nonzero;stroke:none"
               sodipodi:type="arc" />
            <path
               sodipodi:type="arc"
               style="fill:#333333;fill-opacity:1;fill-rule:nonzero;stroke:none"
               id="path3240"
               sodipodi:cx="851.42859"
               sodipodi:cy="1182.8572"
               sodipodi:rx="8.5714283"
               sodipodi:ry="8.5714283"
               d="m 860.00002,1182.8572 c 0,4.7338 -3.83756,8.5714 -8.57143,8.5714 -4.73387,0 -8.57143,-3.8376 -8.57143,-8.5714 0,-4.7339 3.83756,-8.5715 8.57143,-8.5715 4.73387,0 8.57143,3.8376 8.57143,8.5715 z"
               transform="translate(160,-37.637817)" />
            <path
               transform="translate(200,-37.637817)"
               d="m 860.00002,1182.8572 c 0,4.7338 -3.83756,8.5714 -8.57143,8.5714 -4.73387,0 -8.57143,-3.8376 -8.57143,-8.5714 0,-4.7339 3.83756,-8.5715 8.57143,-8.5715 4.73387,0 8.57143,3.8376 8.57143,8.5715 z"
               sodipodi:ry="8.5714283"
               sodipodi:rx="8.5714283"
               sodipodi:cy="1182.8572"
               sodipodi:cx="851.42859"
               id="path3242"
               style="fill:#333333;fill-opacity:1;fill-rule:nonzero;stroke:none"
               sodipodi:type="arc" />
            <path
               sodipodi:type="arc"
               style="fill:#333333;fill-opacity:1;fill-rule:nonzero;stroke:none"
               id="path3244"
               sodipodi:cx="851.42859"
               sodipodi:cy="1182.8572"
               sodipodi:rx="8.5714283"
               sodipodi:ry="8.5714283"
               d="m 860.00002,1182.8572 c 0,4.7338 -3.83756,8.5714 -8.57143,8.5714 -4.73387,0 -8.57143,-3.8376 -8.57143,-8.5714 0,-4.7339 3.83756,-8.5715 8.57143,-8.5715 4.73387,0 8.57143,3.8376 8.57143,8.5715 z"
               transform="translate(240,-37.637817)" />
          </g>
        </g>
        <path
           transform="translate(65.714268,78.790753)"
           d="m 860.00002,1182.8572 c 0,4.7338 -3.83756,8.5714 -8.57143,8.5714 -4.73387,0 -8.57143,-3.8376 -8.57143,-8.5714 0,-4.7339 3.83756,-8.5715 8.57143,-8.5715 4.73387,0 8.57143,3.8376 8.57143,8.5715 z"
           sodipodi:ry="8.5714283"
           sodipodi:rx="8.5714283"
           sodipodi:cy="1182.8572"
           sodipodi:cx="851.42859"
           id="path3254"
           style="fill:#333333;fill-opacity:1;fill-rule:nonzero;stroke:none"
           sodipodi:type="arc" />
        <path
           sodipodi:type="arc"
           style="fill:#333333;fill-opacity:1;fill-rule:nonzero;stroke:none"
           id="path3256"
           sodipodi:cx="851.42859"
           sodipodi:cy="1182.8572"
           sodipodi:rx="8.5714283"
           sodipodi:ry="8.5714283"
           d="m 860.00002,1182.8572 c 0,4.7338 -3.83756,8.5714 -8.57143,8.5714 -4.73387,0 -8.57143,-3.8376 -8.57143,-8.5714 0,-4.7339 3.83756,-8.5715 8.57143,-8.5715 4.73387,0 8.57143,3.8376 8.57143,8.5715 z"
           transform="translate(105.71427,78.790753)" />
        <path
           transform="translate(145.71427,78.790753)"
           d="m 860.00002,1182.8572 c 0,4.7338 -3.83756,8.5714 -8.57143,8.5714 -4.73387,0 -8.57143,-3.8376 -8.57143,-8.5714 0,-4.7339 3.83756,-8.5715 8.57143,-8.5715 4.73387,0 8.57143,3.8376 8.57143,8.5715 z"
           sodipodi:ry="8.5714283"
           sodipodi:rx="8.5714283"
           sodipodi:cy="1182.8572"
           sodipodi:cx="851.42859"
           id="path3258"
           style="fill:#333333;fill-opacity:1;fill-rule:nonzero;stroke:none"
           sodipodi:type="arc" />
        <g
           style="fill:#333333"
           id="g3264"
           transform="translate(-2.8571429,-43.57143)">
          <g
             style="fill:#333333"
             transform="translate(-11.428589,0)"
             id="g3266">
            <path
               sodipodi:type="arc"
               style="fill:#333333;fill-opacity:1;fill-rule:nonzero;stroke:none"
               id="path3268"
               sodipodi:cx="851.42859"
               sodipodi:cy="1182.8572"
               sodipodi:rx="8.5714283"
               sodipodi:ry="8.5714283"
               d="m 860.00002,1182.8572 c 0,4.7338 -3.83756,8.5714 -8.57143,8.5714 -4.73387,0 -8.57143,-3.8376 -8.57143,-8.5714 0,-4.7339 3.83756,-8.5715 8.57143,-8.5715 4.73387,0 8.57143,3.8376 8.57143,8.5715 z"
               transform="translate(0,-37.637817)" />
            <path
               transform="translate(40,-37.637817)"
               d="m 860.00002,1182.8572 c 0,4.7338 -3.83756,8.5714 -8.57143,8.5714 -4.73387,0 -8.57143,-3.8376 -8.57143,-8.5714 0,-4.7339 3.83756,-8.5715 8.57143,-8.5715 4.73387,0 8.57143,3.8376 8.57143,8.5715 z"
               sodipodi:ry="8.5714283"
               sodipodi:rx="8.5714283"
               sodipodi:cy="1182.8572"
               sodipodi:cx="851.42859"
               id="path3270"
               style="fill:#333333;fill-opacity:1;fill-rule:nonzero;stroke:none"
               sodipodi:type="arc" />
            <path
               sodipodi:type="arc"
               style="fill:#333333;fill-opacity:1;fill-rule:nonzero;stroke:none"
               id="path3272"
               sodipodi:cx="851.42859"
               sodipodi:cy="1182.8572"
               sodipodi:rx="8.5714283"
               sodipodi:ry="8.5714283"
               d="m 860.00002,1182.8572 c 0,4.7338 -3.83756,8.5714 -8.57143,8.5714 -4.73387,0 -8.57143,-3.8376 -8.57143,-8.5714 0,-4.7339 3.83756,-8.5715 8.57143,-8.5715 4.73387,0 8.57143,3.8376 8.57143,8.5715 z"
               transform="translate(80,-37.637817)" />
            <path
               transform="translate(120,-37.637817)"
               d="m 860.00002,1182.8572 c 0,4.7338 -3.83756,8.5714 -8.57143,8.5714 -4.73387,0 -8.57143,-3.8376 -8.57143,-8.5714 0,-4.7339 3.83756,-8.5715 8.57143,-8.5715 4.73387,0 8.57143,3.8376 8.57143,8.5715 z"
               sodipodi:ry="8.5714283"
               sodipodi:rx="8.5714283"
               sodipodi:cy="1182.8572"
               sodipodi:cx="851.42859"
               id="path3274"
               style="fill:#333333;fill-opacity:1;fill-rule:nonzero;stroke:none"
               sodipodi:type="arc" />
            <path
               sodipodi:type="arc"
               style="fill:#333333;fill-opacity:1;fill-rule:nonzero;stroke:none"
               id="path3276"
               sodipodi:cx="851.42859"
               sodipodi:cy="1182.8572"
               sodipodi:rx="8.5714283"
               sodipodi:ry="8.5714283"
               d="m 860.00002,1182.8572 c 0,4.7338 -3.83756,8.5714 -8.57143,8.5714 -4.73387,0 -8.57143,-3.8376 -8.57143,-8.5714 0,-4.7339 3.83756,-8.5715 8.57143,-8.5715 4.73387,0 8.57143,3.8376 8.57143,8.5715 z"
               transform="translate(160,-37.637817)" />
            <path
               transform="translate(200,-37.637817)"
               d="m 860.00002,1182.8572 c 0,4.7338 -3.83756,8.5714 -8.57143,8.5714 -4.73387,0 -8.57143,-3.8376 -8.57143,-8.5714 0,-4.7339 3.83756,-8.5715 8.57143,-8.5715 4.73387,0 8.57143,3.8376 8.57143,8.5715 z"
               sodipodi:ry="8.5714283"
               sodipodi:rx="8.5714283"
               sodipodi:cy="1182.8572"
               sodipodi:cx="851.42859"
               id="path3278"
               style="fill:#333333;fill-opacity:1;fill-rule:nonzero;stroke:none"
               sodipodi:type="arc" />
            <path
               sodipodi:type="arc"
               style="fill:#333333;fill-opacity:1;fill-rule:nonzero;stroke:none"
               id="path3280"
               sodipodi:cx="851.42859"
               sodipodi:cy="1182.8572"
               sodipodi:rx="8.5714283"
               sodipodi:ry="8.5714283"
               d="m 860.00002,1182.8572 c 0,4.7338 -3.83756,8.5714 -8.57143,8.5714 -4.73387,0 -8.57143,-3.8376 -8.57143,-8.5714 0,-4.7339 3.83756,-8.5715 8.57143,-8.5715 4.73387,0 8.57143,3.8376 8.57143,8.5715 z"
               transform="translate(240,-37.637817)" />
          </g>
        </g>
        <path
           sodipodi:type="arc"
           style="fill:#333333;fill-opacity:1;fill-rule:nonzero;stroke:none"
           id="path3288"
           sodipodi:cx="851.42859"
           sodipodi:cy="1182.8572"
           sodipodi:rx="8.5714283"
           sodipodi:ry="8.5714283"
           d="m 860.00002,1182.8572 c 0,4.7338 -3.83756,8.5714 -8.57143,8.5714 -4.73387,0 -8.57143,-3.8376 -8.57143,-8.5714 0,-4.7339 3.83756,-8.5715 8.57143,-8.5715 4.73387,0 8.57143,3.8376 8.57143,8.5715 z"
           transform="translate(25.714268,-121.20925)" />
        <path
           transform="translate(65.714268,-121.20925)"
           d="m 860.00002,1182.8572 c 0,4.7338 -3.83756,8.5714 -8.57143,8.5714 -4.73387,0 -8.57143,-3.8376 -8.57143,-8.5714 0,-4.7339 3.83756,-8.5715 8.57143,-8.5715 4.73387,0 8.57143,3.8376 8.57143,8.5715 z"
           sodipodi:ry="8.5714283"
           sodipodi:rx="8.5714283"
           sodipodi:cy="1182.8572"
           sodipodi:cx="851.42859"
           id="path3290"
           style="fill:#333333;fill-opacity:1;fill-rule:nonzero;stroke:none"
           sodipodi:type="arc" />
        <path
           sodipodi:type="arc"
           style="fill:#333333;fill-opacity:1;fill-rule:nonzero;stroke:none"
           id="path3292"
           sodipodi:cx="851.42859"
           sodipodi:cy="1182.8572"
           sodipodi:rx="8.5714283"
           sodipodi:ry="8.5714283"
           d="m 860.00002,1182.8572 c 0,4.7338 -3.83756,8.5714 -8.57143,8.5714 -4.73387,0 -8.57143,-3.8376 -8.57143,-8.5714 0,-4.7339 3.83756,-8.5715 8.57143,-8.5715 4.73387,0 8.57143,3.8376 8.57143,8.5715 z"
           transform="translate(105.71427,-121.20925)" />
        <path
           transform="translate(145.71427,-121.20925)"
           d="m 860.00002,1182.8572 c 0,4.7338 -3.83756,8.5714 -8.57143,8.5714 -4.73387,0 -8.57143,-3.8376 -8.57143,-8.5714 0,-4.7339 3.83756,-8.5715 8.57143,-8.5715 4.73387,0 8.57143,3.8376 8.57143,8.5715 z"
           sodipodi:ry="8.5714283"
           sodipodi:rx="8.5714283"
           sodipodi:cy="1182.8572"
           sodipodi:cx="851.42859"
           id="path3294"
           style="fill:#333333;fill-opacity:1;fill-rule:nonzero;stroke:none"
           sodipodi:type="arc" />
        <path
           sodipodi:type="arc"
           style="fill:#333333;fill-opacity:1;fill-rule:nonzero;stroke:none"
           id="path3296"
           sodipodi:cx="851.42859"
           sodipodi:cy="1182.8572"
           sodipodi:rx="8.5714283"
           sodipodi:ry="8.5714283"
           d="m 860.00002,1182.8572 c 0,4.7338 -3.83756,8.5714 -8.57143,8.5714 -4.73387,0 -8.57143,-3.8376 -8.57143,-8.5714 0,-4.7339 3.83756,-8.5715 8.57143,-8.5715 4.73387,0 8.57143,3.8376 8.57143,8.5715 z"
           transform="translate(185.71427,-121.20925)" />
        <path
           sodipodi:type="arc"
           style="fill:#333333;fill-opacity:1;fill-rule:nonzero;stroke:none"
           id="path3308"
           sodipodi:cx="851.42859"
           sodipodi:cy="1182.8572"
           sodipodi:rx="8.5714283"
           sodipodi:ry="8.5714283"
           d="m 860.00002,1182.8572 c 0,4.7338 -3.83756,8.5714 -8.57143,8.5714 -4.73387,0 -8.57143,-3.8376 -8.57143,-8.5714 0,-4.7339 3.83756,-8.5715 8.57143,-8.5715 4.73387,0 8.57143,3.8376 8.57143,8.5715 z"
           transform="translate(65.714268,-161.20925)" />
        <path
           transform="translate(105.71427,-161.20925)"
           d="m 860.00002,1182.8572 c 0,4.7338 -3.83756,8.5714 -8.57143,8.5714 -4.73387,0 -8.57143,-3.8376 -8.57143,-8.5714 0,-4.7339 3.83756,-8.5715 8.57143,-8.5715 4.73387,0 8.57143,3.8376 8.57143,8.5715 z"
           sodipodi:ry="8.5714283"
           sodipodi:rx="8.5714283"
           sodipodi:cy="1182.8572"
           sodipodi:cx="851.42859"
           id="path3310"
           style="fill:#333333;fill-opacity:1;fill-rule:nonzero;stroke:none"
           sodipodi:type="arc" />
        <path
           sodipodi:type="arc"
           style="fill:#333333;fill-opacity:1;fill-rule:nonzero;stroke:none"
           id="path3312"
           sodipodi:cx="851.42859"
           sodipodi:cy="1182.8572"
           sodipodi:rx="8.5714283"
           sodipodi:ry="8.5714283"
           d="m 860.00002,1182.8572 c 0,4.7338 -3.83756,8.5714 -8.57143,8.5714 -4.73387,0 -8.57143,-3.8376 -8.57143,-8.5714 0,-4.7339 3.83756,-8.5715 8.57143,-8.5715 4.73387,0 8.57143,3.8376 8.57143,8.5715 z"
           transform="translate(145.71427,-161.20925)" />
      </g>
      <path
         inkscape:connector-curvature="0"
         id="path3149"
         d="m 960.00003,556.79968 c -73.05562,0 -132.28125,48.1619 -132.28125,107.5625 0,30.4982 15.63823,58.02035 40.71875,77.59375 l 0,32.125 15.5,188.125 152.12497,0 15.5,-188.125 0,-32.125 c 25.0805,-19.5734 40.7187,-47.09555 40.7187,-77.59375 0,-59.4006 -59.2256,-107.5625 -132.28117,-107.5625 z"
         style="opacity:0.3;fill:#1a1a1a;fill-opacity:1;fill-rule:nonzero;stroke:none" />
      <path
         inkscape:connector-curvature="0"
         id="path3423"
         d="m 919.65625,787.04788 6.6875,175.7891 67.3125,0 6.68755,-175.7891 c -12.72398,2.6479 -26.28639,4.0781 -40.3438,4.0781 -14.05742,0 -27.6198,-1.4302 -40.34375,-4.0781 z"
         style="fill:#4d4d4d;fill-opacity:1;fill-rule:nonzero;stroke:none" />
      <path
         style="fill:#666666;fill-opacity:1;fill-rule:nonzero;stroke:none"
         d="m 924.70702,784.84708 5.85026,180.1907 58.88545,0 5.85035,-180.1907 c -11.13106,2.7142 -22.99555,4.1803 -35.29307,4.1803 -12.29753,0 -24.16199,-1.4661 -35.29299,-4.1803 z"
         id="path3444"
         inkscape:connector-curvature="0" />
      <g
         transform="translate(2.734375e-6,-487.31192)"
         style="fill:#333333"
         id="g3460">
        <path
           inkscape:connector-curvature="0"
           id="path3451"
           style="font-size:40px;font-style:normal;font-variant:normal;font-weight:bold;font-stretch:normal;line-height:125%;letter-spacing:0px;word-spacing:0px;fill:#333333;fill-opacity:1;stroke:none;font-family:Droid Sans;-inkscape-font-specification:Droid Sans Bold"
           d="m 935.72265,1310.9618 c -0.15624,0 -0.32551,-0.01 -0.50782,-0.019 -0.19529,-10e-5 -0.37759,-0.013 -0.54687,-0.039 -0.18228,-0.013 -0.34504,-0.033 -0.48828,-0.059 -0.15624,-0.013 -0.27342,-0.033 -0.35156,-0.059 l 0,-5.5859 c 0.10418,0.026 0.24741,0.052 0.42968,0.078 0.18231,0.026 0.37762,0.046 0.58594,0.059 0.19533,0.026 0.39064,0.039 0.58594,0.039 0.19532,0.013 0.35808,0.019 0.48828,0.019 0.76824,0 1.47788,-0.098 2.12891,-0.293 0.63803,-0.1953 1.19141,-0.5143 1.66015,-0.957 0.45574,-0.4297 0.81381,-1.0026 1.07422,-1.7188 0.24741,-0.7031 0.3711,-1.569 0.37109,-2.5976 l 0,-11.1133 5.95704,0 0,21.8359 -4.51172,0 -0.87891,-3.2812 -0.29297,0 c -0.31249,0.5599 -0.65103,1.0677 -1.01562,1.5234 -0.36458,0.4557 -0.76822,0.8398 -1.21094,1.1524 -0.45572,0.3255 -0.96353,0.5729 -1.52344,0.7422 -0.5729,0.1822 -1.22394,0.2734 -1.95312,0.2734" />
        <path
           inkscape:connector-curvature="0"
           id="path3453"
           style="font-size:40px;font-style:normal;font-variant:normal;font-weight:bold;font-stretch:normal;line-height:125%;letter-spacing:0px;word-spacing:0px;fill:#333333;fill-opacity:1;stroke:none;font-family:Droid Sans;-inkscape-font-specification:Droid Sans Bold"
           d="m 960.03906,1306.6058 c 0.58593,0 1.13931,-0.065 1.66016,-0.1953 0.53384,-0.1302 1.0742,-0.2929 1.62109,-0.4883 l 0,4.4336 c -0.55991,0.2865 -1.25652,0.5209 -2.08984,0.7032 -0.82033,0.1953 -1.71876,0.2929 -2.69531,0.2929 -0.95053,0 -1.83595,-0.1106 -2.65625,-0.332 -0.82032,-0.2214 -1.52996,-0.6055 -2.12891,-1.1523 -0.59896,-0.5599 -1.07422,-1.3021 -1.42578,-2.2266 -0.33855,-0.9375 -0.50782,-2.1094 -0.50781,-3.5156 l 0,-10.5274 -2.85157,0 0,-2.5195 3.28125,-1.9922 1.71875,-4.6094 3.8086,0 0,4.6485 5.3125,0 0,4.4726 -5.3125,0 0,10.5274 c -1e-5,0.8463 0.20832,1.4713 0.625,1.875 0.41665,0.4036 0.96353,0.6054 1.64062,0.6054" />
        <path
           inkscape:connector-curvature="0"
           id="path3455"
           style="font-size:40px;font-style:normal;font-variant:normal;font-weight:bold;font-stretch:normal;line-height:125%;letter-spacing:0px;word-spacing:0px;fill:#333333;fill-opacity:1;stroke:none;font-family:Droid Sans;-inkscape-font-specification:Droid Sans Bold"
           d="m 972.32422,1310.9613 -7.71485,-21.8359 6.23047,0 3.61328,12.4414 c 0.22135,0.7422 0.41015,1.5169 0.56641,2.3242 0.16926,0.7943 0.27343,1.5104 0.3125,2.1484 l 0.11719,0 c 0.0391,-0.6901 0.13671,-1.4192 0.29297,-2.1875 0.16926,-0.7812 0.36457,-1.5429 0.58593,-2.2851 l 3.59375,-12.4414 6.25,0 -7.71484,21.8359 -6.13281,0" />
      </g>
      <g
         transform="matrix(1.0771938,0,0,1.0771938,-74.105993,-588.00788)"
         id="g3465"
         style="fill:#1a1a1a">
        <path
           d="m 935.72265,1310.9618 c -0.15624,0 -0.32551,-0.01 -0.50782,-0.019 -0.19529,-10e-5 -0.37759,-0.013 -0.54687,-0.039 -0.18228,-0.013 -0.34504,-0.033 -0.48828,-0.059 -0.15624,-0.013 -0.27342,-0.033 -0.35156,-0.059 l 0,-5.5859 c 0.10418,0.026 0.24741,0.052 0.42968,0.078 0.18231,0.026 0.37762,0.046 0.58594,0.059 0.19533,0.026 0.39064,0.039 0.58594,0.039 0.19532,0.013 0.35808,0.019 0.48828,0.019 0.76824,0 1.47788,-0.098 2.12891,-0.293 0.63803,-0.1953 1.19141,-0.5143 1.66015,-0.957 0.45574,-0.4297 0.81381,-1.0026 1.07422,-1.7188 0.24741,-0.7031 0.3711,-1.569 0.37109,-2.5976 l 0,-11.1133 5.95704,0 0,21.8359 -4.51172,0 -0.87891,-3.2812 -0.29297,0 c -0.31249,0.5599 -0.65103,1.0677 -1.01562,1.5234 -0.36458,0.4557 -0.76822,0.8398 -1.21094,1.1524 -0.45572,0.3255 -0.96353,0.5729 -1.52344,0.7422 -0.5729,0.1822 -1.22394,0.2734 -1.95312,0.2734"
           style="font-size:40px;font-style:normal;font-variant:normal;font-weight:bold;font-stretch:normal;line-height:125%;letter-spacing:0px;word-spacing:0px;fill:#1a1a1a;fill-opacity:1;stroke:none;font-family:Droid Sans;-inkscape-font-specification:Droid Sans Bold"
           id="path3467"
           inkscape:connector-curvature="0" />
        <path
           d="m 960.03906,1306.6058 c 0.58593,0 1.13931,-0.065 1.66016,-0.1953 0.53384,-0.1302 1.0742,-0.2929 1.62109,-0.4883 l 0,4.4336 c -0.55991,0.2865 -1.25652,0.5209 -2.08984,0.7032 -0.82033,0.1953 -1.71876,0.2929 -2.69531,0.2929 -0.95053,0 -1.83595,-0.1106 -2.65625,-0.332 -0.82032,-0.2214 -1.52996,-0.6055 -2.12891,-1.1523 -0.59896,-0.5599 -1.07422,-1.3021 -1.42578,-2.2266 -0.33855,-0.9375 -0.50782,-2.1094 -0.50781,-3.5156 l 0,-10.5274 -2.85157,0 0,-2.5195 3.28125,-1.9922 1.71875,-4.6094 3.8086,0 0,4.6485 5.3125,0 0,4.4726 -5.3125,0 0,10.5274 c -1e-5,0.8463 0.20832,1.4713 0.625,1.875 0.41665,0.4036 0.96353,0.6054 1.64062,0.6054"
           style="font-size:40px;font-style:normal;font-variant:normal;font-weight:bold;font-stretch:normal;line-height:125%;letter-spacing:0px;word-spacing:0px;fill:#1a1a1a;fill-opacity:1;stroke:none;font-family:Droid Sans;-inkscape-font-specification:Droid Sans Bold"
           id="path3469"
           inkscape:connector-curvature="0" />
        <path
           d="m 972.32422,1310.9613 -7.71485,-21.8359 6.23047,0 3.61328,12.4414 c 0.22135,0.7422 0.41015,1.5169 0.56641,2.3242 0.16926,0.7943 0.27343,1.5104 0.3125,2.1484 l 0.11719,0 c 0.0391,-0.6901 0.13671,-1.4192 0.29297,-2.1875 0.16926,-0.7812 0.36457,-1.5429 0.58593,-2.2851 l 3.59375,-12.4414 6.25,0 -7.71484,21.8359 -6.13281,0"
           style="font-size:40px;font-style:normal;font-variant:normal;font-weight:bold;font-stretch:normal;line-height:125%;letter-spacing:0px;word-spacing:0px;fill:#1a1a1a;fill-opacity:1;stroke:none;font-family:Droid Sans;-inkscape-font-specification:Droid Sans Bold"
           id="path3471"
           inkscape:connector-curvature="0" />
      </g>
    </g>
    <g
       id="g4145"
       transform="matrix(0.97180126,0,0,0.97180126,15.964518,12.272636)"
       style="opacity:0.5;fill:#333333">
      <path
         transform="matrix(0.53095714,-0.20918741,0.20323044,0.54652024,415.19228,419.60411)"
         d="m 1277.1428,460 c 0,61.5403 -67.1573,111.42857 -150,111.42857 -82.8427,0 -149.99998,-49.88827 -149.99998,-111.42857 0,-61.5403 67.15728,-111.42857 149.99998,-111.42857 82.8427,0 150,49.88827 150,111.42857 z"
         sodipodi:ry="111.42857"
         sodipodi:rx="150"
         sodipodi:cy="460"
         sodipodi:cx="1127.1428"
         id="path4141"
         style="fill:#333333;fill-opacity:1;fill-rule:nonzero;stroke:none"
         sodipodi:type="arc" />
      <path
         sodipodi:type="arc"
         style="fill:#333333;fill-opacity:1;fill-rule:nonzero;stroke:none"
         id="path4143"
         sodipodi:cx="1127.1428"
         sodipodi:cy="460"
         sodipodi:rx="150"
         sodipodi:ry="111.42857"
         d="m 1277.1428,460 c 0,61.5403 -67.1573,111.42857 -150,111.42857 -82.8427,0 -149.99998,-49.88827 -149.99998,-111.42857 0,-61.5403 67.15728,-111.42857 149.99998,-111.42857 82.8427,0 150,49.88827 150,111.42857 z"
         transform="matrix(-0.53095714,-0.20918741,-0.20323044,0.54652024,1527.6648,419.60411)" />
    </g>
    <path
       style="fill:#333333;fill-opacity:1;fill-rule:nonzero;stroke:none"
       d="M 806.25 394.34375 C 777.58829 394.87482 753.25472 408.34605 744.65625 431.46875 C 739.03849 446.57583 741.11529 463.22466 749.0625 478.5625 C 746.64798 468.13585 747.0037 457.56259 750.6875 447.65625 C 759.28597 424.53355 783.61954 411.03107 812.28125 410.5 C 825.3093 410.2586 839.2544 412.70948 853 418.125 C 877.20403 427.66094 895.80018 444.46417 905.5625 463.25 C 899.74827 438.29957 877.93087 414.17957 846.9375 401.96875 C 833.1919 396.55323 819.27805 394.10235 806.25 394.34375 z M 1111.3125 394.34375 C 1098.9987 394.43394 1085.949 396.8917 1073.0625 401.96875 C 1029.0766 419.2984 1003.5556 460.61698 1016.0625 494.25 C 1017.0964 497.03043 1018.3743 499.66086 1019.8438 502.15625 C 1013.8574 470.28189 1038.6804 434.05945 1079.125 418.125 C 1092.8706 412.70948 1106.7844 410.2586 1119.8125 410.5 C 1145.0293 410.96724 1166.8772 421.48367 1177.625 439.75 C 1177.1003 436.94877 1176.3543 434.18634 1175.3438 431.46875 C 1166.7452 408.34605 1142.4117 394.87482 1113.75 394.34375 C 1112.9357 394.32866 1112.1334 394.33774 1111.3125 394.34375 z "
       id="path4201"
       transform="translate(0,-27.637817)" />
    <g
       id="g4246"
       transform="translate(-1.1087363,0)">
      <g
         id="g4236">
        <path
           transform="matrix(0.53333334,0,0,0.53333334,648.99998,190.07647)"
           d="m 874.28573,462.85715 c 0,23.66934 -19.18779,42.85714 -42.85714,42.85714 -23.66935,0 -42.85714,-19.1878 -42.85714,-42.85714 0,-23.66935 19.18779,-42.85715 42.85714,-42.85715 23.66935,0 42.85714,19.1878 42.85714,42.85715 z"
           sodipodi:ry="42.857143"
           sodipodi:rx="42.857143"
           sodipodi:cy="462.85715"
           sodipodi:cx="831.42859"
           id="path4214"
           style="opacity:0.7;fill:#1a1a1a;fill-opacity:1;fill-rule:nonzero;stroke:none"
           sodipodi:type="arc" />
        <path
           sodipodi:type="arc"
           style="opacity:0.7;fill:#800000;fill-opacity:1;fill-rule:nonzero;stroke:none"
           id="path4230"
           sodipodi:cx="831.42859"
           sodipodi:cy="462.85715"
           sodipodi:rx="42.857143"
           sodipodi:ry="42.857143"
           d="m 874.28573,462.85715 c 0,23.66934 -19.18779,42.85714 -42.85714,42.85714 -23.66935,0 -42.85714,-19.1878 -42.85714,-42.85714 0,-23.66935 19.18779,-42.85715 42.85714,-42.85715 23.66935,0 42.85714,19.1878 42.85714,42.85715 z"
           transform="matrix(0.25049063,0,0,0.25049063,884.16349,320.99224)" />
      </g>
      <g
         transform="translate(-262.63966,0)"
         id="g4240">
        <path
           sodipodi:type="arc"
           style="opacity:0.7;fill:#1a1a1a;fill-opacity:1;fill-rule:nonzero;stroke:none"
           id="path4242"
           sodipodi:cx="831.42859"
           sodipodi:cy="462.85715"
           sodipodi:rx="42.857143"
           sodipodi:ry="42.857143"
           d="m 874.28573,462.85715 c 0,23.66934 -19.18779,42.85714 -42.85714,42.85714 -23.66935,0 -42.85714,-19.1878 -42.85714,-42.85714 0,-23.66935 19.18779,-42.85715 42.85714,-42.85715 23.66935,0 42.85714,19.1878 42.85714,42.85715 z"
           transform="matrix(0.53333334,0,0,0.53333334,648.99998,190.07647)" />
        <path
           transform="matrix(0.25049063,0,0,0.25049063,884.16349,320.99224)"
           d="m 874.28573,462.85715 c 0,23.66934 -19.18779,42.85714 -42.85714,42.85714 -23.66935,0 -42.85714,-19.1878 -42.85714,-42.85714 0,-23.66935 19.18779,-42.85715 42.85714,-42.85715 23.66935,0 42.85714,19.1878 42.85714,42.85715 z"
           sodipodi:ry="42.857143"
           sodipodi:rx="42.857143"
           sodipodi:cy="462.85715"
           sodipodi:cx="831.42859"
           id="path4244"
           style="opacity:0.7;fill:#800000;fill-opacity:1;fill-rule:nonzero;stroke:none"
           sodipodi:type="arc" />
      </g>
    </g>
    <path
       style="fill:#800000;fill-opacity:1;fill-rule:nonzero;stroke:none"
       d="M 960 134.09375 C 915.1905 134.09375 878.875 177.57359 878.875 231.21875 C 878.875 244.55035 881.12815 257.24797 885.1875 268.8125 L 871.125 268.8125 L 871.125 280.125 L 889.90625 280.125 C 894.54172 289.62787 900.47938 298.09404 907.4375 305.1875 L 907.4375 290.46875 C 904.79099 287.25734 902.40717 283.78923 900.3125 280.125 L 930.09375 280.125 L 930.09375 268.8125 L 895.03125 268.8125 C 891.97373 260.5199 890.28125 251.49999 890.28125 242.0625 C 890.28125 201.35529 921.5017 168.375 960 168.375 C 998.49827 168.375 1029.7188 201.35529 1029.7188 242.0625 C 1029.7188 251.49999 1028.0263 260.5199 1024.9688 268.8125 L 989.90625 268.8125 L 989.90625 280.125 L 1019.6875 280.125 C 1017.5928 283.78923 1015.209 287.25734 1012.5625 290.46875 L 1012.5625 305.1875 C 1019.5206 298.09404 1025.4583 289.62787 1030.0938 280.125 L 1048.875 280.125 L 1048.875 268.8125 L 1034.8125 268.8125 C 1038.8719 257.24797 1041.125 244.55035 1041.125 231.21875 C 1041.125 177.57359 1004.8095 134.09375 960 134.09375 z M 960 209.25 C 948.84216 209.25 939.8125 218.27966 939.8125 229.4375 C 939.8125 240.59534 948.84216 249.65625 960 249.65625 C 971.15784 249.65625 980.1875 240.59534 980.1875 229.4375 C 980.1875 218.27966 971.15784 209.25 960 209.25 z "
       id="path4263"
       transform="translate(0,-27.637817)" />
    <g
       id="g5010"
       transform="matrix(0.97334929,0,0,0.97334929,25.584684,8.4320509)">
      <g
         id="g4996">
        <g
           id="g4838"
           transform="translate(12.140472,0)">
          <path
             id="path3553"
             d="m 1250.0312,279.89343 c -7.9667,0 -15.7537,0.95468 -23.3124,2.75 10.2584,28.55424 16.6305,59.09902 18.4374,90.9375 3.1938,12.3556 4.875,25.10536 4.875,38.125 0,24.37944 -5.875,47.76339 -16.625,69.5 -10.3044,36.33877 -26.7423,69.9196 -48.0937,99.375 18.9381,14.39687 41.0738,22.6875 64.7187,22.6875 69.9636,0 126.6563,-72.39204 126.6563,-161.6875 0,-89.29545 -56.6927,-161.6875 -126.6563,-161.6875 z"
             style="fill:#1a1a1a;fill-opacity:1;fill-rule:nonzero;stroke:none"
             inkscape:connector-curvature="0" />
          <path
             id="path4828"
             d="m 1238.0625,286.54968 c -3.2988,0 -6.549,0.17063 -9.7813,0.5 11.2752,32.89299 17.4376,68.35124 17.4376,105.3125 0,70.91966 -22.6304,136.30162 -60.7188,188.65625 16.036,9.9669 34.0254,15.5625 53.0625,15.5625 67.0785,0 121.4687,-69.38684 121.4687,-155 0,-85.61315 -54.3902,-155.03125 -121.4687,-155.03125 z"
             style="fill:#333333;fill-opacity:1;fill-rule:nonzero;stroke:none"
             inkscape:connector-curvature="0" />
          <path
             id="path4832"
             d="m 1237.9062,286.58093 c -3.2356,0 -6.4533,0.15172 -9.625,0.46875 8.2073,23.94295 13.6835,49.24861 16.0626,75.5 41.5464,15.50025 79.7191,34.2771 113.625,55.75 -8.7962,-74.57123 -59.1821,-131.71875 -120.0626,-131.71875 z"
             style="opacity:0.5;fill:#808080;fill-opacity:1;fill-rule:nonzero;stroke:none"
             inkscape:connector-curvature="0" />
        </g>
        <path
           style="fill:#1a1a1a;fill-opacity:1;fill-rule:nonzero;stroke:none"
           d="m 1249.3122,281.43173 c -2.4845,-0.31229 -5.0272,0.29071 -7.5992,1.70244 -0.2153,27.56786 -1.8806,56.87712 -5.1244,87.23825 -0.4814,11.87999 -1.4818,24.07566 -3.0387,36.4622 -2.9154,23.19394 -7.5438,45.21053 -13.4957,65.46874 -7.5591,34.16781 -16.701,65.47137 -26.8821,92.65748 4.1844,14.43917 10.0964,23.19436 17.4705,24.12124 21.8192,2.74253 48.1565,-63.90699 58.8347,-148.86032 10.678,-84.9533 1.6542,-156.0475 -20.1651,-158.79003 z"
           id="path4814"
           inkscape:connector-curvature="0" />
      </g>
      <g
         id="g5003">
        <g
           id="g4854"
           transform="matrix(-1,0,0,1,1907.8595,0)">
          <path
             inkscape:connector-curvature="0"
             style="fill:#1a1a1a;fill-opacity:1;fill-rule:nonzero;stroke:none"
             d="m 1250.0312,279.89343 c -7.9667,0 -15.7537,0.95468 -23.3124,2.75 10.2584,28.55424 16.6305,59.09902 18.4374,90.9375 3.1938,12.3556 4.875,25.10536 4.875,38.125 0,24.37944 -5.875,47.76339 -16.625,69.5 -10.3044,36.33877 -26.7423,69.9196 -48.0937,99.375 18.9381,14.39687 41.0738,22.6875 64.7187,22.6875 69.9636,0 126.6563,-72.39204 126.6563,-161.6875 0,-89.29545 -56.6927,-161.6875 -126.6563,-161.6875 z"
             id="path4856" />
          <path
             inkscape:connector-curvature="0"
             style="fill:#333333;fill-opacity:1;fill-rule:nonzero;stroke:none"
             d="m 1238.0625,286.54968 c -3.2988,0 -6.549,0.17063 -9.7813,0.5 11.2752,32.89299 17.4376,68.35124 17.4376,105.3125 0,70.91966 -22.6304,136.30162 -60.7188,188.65625 16.036,9.9669 34.0254,15.5625 53.0625,15.5625 67.0785,0 121.4687,-69.38684 121.4687,-155 0,-85.61315 -54.3902,-155.03125 -121.4687,-155.03125 z"
             id="path4858" />
          <path
             inkscape:connector-curvature="0"
             style="opacity:0.5;fill:#808080;fill-opacity:1;fill-rule:nonzero;stroke:none"
             d="m 1237.9062,286.58093 c -3.2356,0 -6.4533,0.15172 -9.625,0.46875 8.2073,23.94295 13.6835,49.24861 16.0626,75.5 41.5464,15.50025 79.7191,34.2771 113.625,55.75 -8.7962,-74.57123 -59.1821,-131.71875 -120.0626,-131.71875 z"
             id="path4860" />
        </g>
        <path
           inkscape:connector-curvature="0"
           id="path4862"
           d="m 670.6878,281.43173 c 2.4845,-0.31229 5.0272,0.29071 7.5992,1.70244 0.2153,27.56786 1.8806,56.87712 5.1244,87.23825 0.4814,11.87999 1.4818,24.07566 3.0387,36.4622 2.9154,23.19394 7.5438,45.21053 13.4957,65.46874 7.5591,34.16781 16.701,65.47137 26.8821,92.65748 -4.1844,14.43917 -10.0964,23.19436 -17.4705,24.12124 -21.8192,2.74253 -48.1565,-63.90699 -58.8347,-148.86032 -10.678,-84.9533 -1.6542,-156.0475 20.1651,-158.79003 z"
           style="fill:#1a1a1a;fill-opacity:1;fill-rule:nonzero;stroke:none" />
      </g>
      <path
         inkscape:connector-curvature="0"
         id="path4919"
         d="M 954.28125,29.513969 C 736.52327,29.513969 560,170.22002 560,343.79522 c 0,0.26076 -8e-4,0.52063 0,0.78125 11.36386,-17.61741 25.62895,-32.10251 41.8125,-42.3125 5.15522,-141.81846 160.97473,-255.625001 352.46875,-255.625001 188.56265,0 342.53245,110.341961 352.12495,249.125001 15.5983,7.42456 29.7267,18.65186 41.7188,32.8125 C 1338.1733,162.06386 1165.6433,29.513969 954.28125,29.513969 z"
         style="fill:#1a1a1a;fill-opacity:1;fill-rule:nonzero;stroke:none" />
    </g>
  </g>
</svg>
